<svg width="250" height="358" viewBox="0 0 250 358" fill="none" xmlns="http://www.w3.org/2000/svg">
<mask id="mask0_150_325" style="mask-type:alpha" maskUnits="userSpaceOnUse" x="0" y="0" width="250" height="358">
<rect x="2.5" y="2.5" width="245" height="352.143" rx="2.5" stroke="white" stroke-width="5"/>
<path d="M80.9277 138.253C61.0989 173.316 49.5728 206.363 50.7012 224.983C51.8297 244.65 67.3863 271.411 93.0989 298.091C102.127 307.52 124.13 327.752 125.341 327.752C126.307 327.752 146.298 309.375 155.567 300.024C181.118 274.07 196.433 249.002 199.658 228.045C202.802 207.168 191.597 174.201 167.095 132.449L163.949 127.048L151.375 144.62L138.882 162.192H125.502L112.123 162.112L103.499 150.02C98.6633 143.33 93.101 135.512 90.924 132.528L87.1352 127.21L80.9277 138.253ZM81.8144 203.299C86.6498 205.636 89.6337 207.975 95.6794 214.02C108.012 226.433 113.735 237.638 113.169 248.519C112.928 253.678 112.606 254.644 110.671 256.58C108.656 258.675 107.931 258.837 102.206 258.837C96.9676 258.837 95.194 258.433 90.7601 256.338C79.7972 251.099 70.2064 241.83 63.8391 230.222C56.7449 217.244 56.9067 204.509 64.2426 200.561C67.6279 198.785 74.882 199.914 81.8144 203.299ZM190.145 202.816C192.482 205.396 192.482 205.556 192.161 213.293C191.919 220.871 191.677 221.596 187.97 229.174C184.585 235.944 182.891 238.201 176.283 244.81C167.576 253.434 159.759 258.11 152.262 258.996C140.817 260.285 136.142 254.966 138.237 243.116C141.944 222.563 166.852 198.703 183.375 199.832C187.164 200.076 188.13 200.559 190.145 202.816Z" fill="black"/>
<path d="M74.8828 74.6299C73.4896 74.6299 72.793 74.2653 72.793 73.5361V51.6416C72.793 51.1598 72.9037 50.8148 73.125 50.6064C73.3464 50.3851 73.6979 50.2744 74.1797 50.2744H85.7813C86.1458 50.2744 86.4063 50.4111 86.5625 50.6846C86.7318 50.958 86.8164 51.4007 86.8164 52.0127V53.0674C86.8164 53.6794 86.7318 54.1221 86.5625 54.3955C86.4063 54.6689 86.1458 54.8057 85.7813 54.8057H78.1445V59.8838H85.5274C85.8919 59.8838 86.1589 60.0205 86.3281 60.2939C86.4974 60.5674 86.582 61.0036 86.582 61.6025V62.6768C86.582 63.2887 86.4974 63.738 86.3281 64.0244C86.1589 64.2979 85.8919 64.4346 85.5274 64.4346H78.1445V73.5361C78.1445 74.2653 77.4479 74.6299 76.0547 74.6299H74.8828ZM97.7539 74.8643C95.0065 74.8643 92.9102 74.057 91.4649 72.4424C90.0326 70.8278 89.3164 68.5036 89.3164 65.4697C89.3164 62.4489 90.0326 60.1377 91.4649 58.5361C92.9102 56.9346 95.0065 56.1338 97.7539 56.1338C100.501 56.1338 102.585 56.9346 104.004 58.5361C105.436 60.1247 106.152 62.4359 106.152 65.4697C106.152 68.5036 105.436 70.8278 104.004 72.4424C102.585 74.057 100.501 74.8643 97.7539 74.8643ZM97.7539 70.7822C98.8477 70.7822 99.6485 70.3395 100.156 69.4541C100.677 68.5687 100.938 67.2406 100.938 65.4697C100.938 63.7119 100.677 62.3903 100.156 61.5049C99.6485 60.6195 98.8477 60.1768 97.7539 60.1768C95.5925 60.1768 94.5117 61.9411 94.5117 65.4697C94.5117 67.2275 94.7722 68.5557 95.293 69.4541C95.8268 70.3395 96.6472 70.7822 97.7539 70.7822ZM117.52 74.8643C114.772 74.8643 112.676 74.057 111.23 72.4424C109.798 70.8278 109.082 68.5036 109.082 65.4697C109.082 62.4489 109.798 60.1377 111.23 58.5361C112.676 56.9346 114.772 56.1338 117.52 56.1338C120.267 56.1338 122.35 56.9346 123.77 58.5361C125.202 60.1247 125.918 62.4359 125.918 65.4697C125.918 68.5036 125.202 70.8278 123.77 72.4424C122.35 74.057 120.267 74.8643 117.52 74.8643ZM117.52 70.7822C118.613 70.7822 119.414 70.3395 119.922 69.4541C120.443 68.5687 120.703 67.2406 120.703 65.4697C120.703 63.7119 120.443 62.3903 119.922 61.5049C119.414 60.6195 118.613 60.1768 117.52 60.1768C115.358 60.1768 114.277 61.9411 114.277 65.4697C114.277 67.2275 114.538 68.5557 115.059 69.4541C115.592 70.3395 116.413 70.7822 117.52 70.7822ZM131.172 74.5713C130.69 74.5713 130.339 74.4606 130.117 74.2393C129.896 74.0179 129.785 73.6663 129.785 73.1846V51.6416C129.785 51.1598 129.896 50.8148 130.117 50.6064C130.339 50.3851 130.69 50.2744 131.172 50.2744H138.047C140.859 50.2744 142.93 50.8213 144.258 51.915C145.586 52.9958 146.25 54.4932 146.25 56.4072C146.25 57.5531 145.892 58.6077 145.176 59.5713C144.46 60.5348 143.561 61.238 142.48 61.6807L142.52 61.8174C143.431 61.9997 144.238 62.3708 144.941 62.9307C145.658 63.4906 146.211 64.1742 146.602 64.9814C147.005 65.7887 147.207 66.6351 147.207 67.5205C147.207 69.7992 146.484 71.5439 145.039 72.7549C143.594 73.9658 141.426 74.5713 138.535 74.5713H131.172ZM137.52 59.9424C138.535 59.9424 139.323 59.7015 139.883 59.2197C140.456 58.7249 140.742 58.0999 140.742 57.3447C140.742 55.626 139.688 54.7666 137.578 54.7666H135.137V59.9424H137.52ZM138.535 70.0205C139.538 70.0205 140.319 69.7796 140.879 69.2979C141.439 68.8031 141.719 68.1064 141.719 67.208C141.719 66.3226 141.393 65.652 140.742 65.1963C140.104 64.7406 139.18 64.5127 137.969 64.5127H135.137V70.0205H138.535ZM154.57 74.8643C152.799 74.8643 151.497 74.402 150.664 73.4775C149.844 72.54 149.434 71.3031 149.434 69.7666C149.434 68.6077 149.674 67.5661 150.156 66.6416C150.638 65.7041 151.615 64.9163 153.086 64.2783C154.557 63.6403 156.66 63.3213 159.395 63.3213V62.1689C159.395 61.4919 159.18 60.9906 158.75 60.665C158.32 60.3395 157.637 60.1768 156.699 60.1768C155.918 60.1768 155.247 60.2614 154.688 60.4307C154.128 60.5869 153.522 60.8018 152.871 61.0752C152.533 61.2314 152.324 61.3096 152.246 61.3096C152.012 61.3096 151.751 61.1338 151.465 60.7822C151.191 60.4307 150.951 60.027 150.742 59.5713C150.534 59.1156 150.43 58.7705 150.43 58.5361C150.43 58.1325 150.716 57.7484 151.289 57.3838C151.875 57.0062 152.676 56.7067 153.691 56.4854C154.707 56.251 155.833 56.1338 157.07 56.1338C159.674 56.1338 161.569 56.6546 162.754 57.6963C163.939 58.7249 164.531 60.1377 164.531 61.9346V68.4385C164.531 69.5192 164.557 70.359 164.609 70.958C164.674 71.557 164.759 72.1494 164.863 72.7354C164.928 73.0869 164.961 73.3343 164.961 73.4775C164.961 73.738 164.714 73.9528 164.219 74.1221C163.737 74.2913 163.184 74.415 162.559 74.4932C161.934 74.5713 161.432 74.6104 161.055 74.6104C160.651 74.6104 160.358 74.4411 160.176 74.1025C160.007 73.751 159.87 73.2757 159.766 72.6768C159.753 72.5986 159.74 72.5205 159.727 72.4424C159.714 72.3643 159.694 72.2861 159.668 72.208C159.538 72.4554 159.258 72.7874 158.828 73.2041C158.411 73.6208 157.839 74.0049 157.109 74.3564C156.38 74.695 155.534 74.8643 154.57 74.8643ZM156.27 70.7822C156.921 70.7822 157.533 70.5804 158.105 70.1768C158.678 69.7601 159.108 69.2327 159.395 68.5947V66.6807C156.152 66.6807 154.531 67.5335 154.531 69.2393C154.531 69.695 154.681 70.0661 154.98 70.3525C155.293 70.639 155.723 70.7822 156.27 70.7822ZM171.152 74.6299C169.772 74.6299 169.082 74.2653 169.082 73.5361V62.5205C169.082 60.8538 168.971 59.4671 168.75 58.3604C168.685 58.0088 168.652 57.7614 168.652 57.6182C168.652 57.3577 168.893 57.1494 169.375 56.9932C169.87 56.8239 170.423 56.7002 171.035 56.6221C171.66 56.5439 172.161 56.5049 172.539 56.5049C172.943 56.5049 173.223 56.6546 173.379 56.9541C173.548 57.2536 173.698 57.6898 173.828 58.2627L173.945 58.7705C174.388 57.9632 174.896 57.3252 175.469 56.8564C176.055 56.3747 176.803 56.1338 177.715 56.1338C178.47 56.1338 178.991 56.3291 179.277 56.7197C179.564 57.0973 179.707 57.527 179.707 58.0088C179.707 58.2692 179.661 58.6403 179.57 59.1221C179.479 59.5908 179.349 60.0075 179.18 60.3721C179.01 60.7367 178.822 60.9189 178.613 60.9189C178.47 60.9189 178.255 60.8799 177.969 60.8018C177.578 60.6976 177.246 60.6455 176.973 60.6455C176.335 60.6455 175.775 60.8278 175.293 61.1924C174.824 61.5439 174.466 61.9411 174.219 62.3838V73.5361C174.219 74.2653 173.516 74.6299 172.109 74.6299H171.152Z" fill="white"/>
</mask>
<g mask="url(#mask0_150_325)">
<rect width="250" height="357.143" fill="#4D314A"/>
</g>
</svg>
