<svg width="250" height="358" viewBox="0 0 250 358" fill="none" xmlns="http://www.w3.org/2000/svg">
<mask id="mask0_150_408" style="mask-type:alpha" maskUnits="userSpaceOnUse" x="0" y="0" width="250" height="358">
<rect x="2.5" y="2.5" width="245" height="352.143" rx="2.5" stroke="white" stroke-width="5"/>
<g clip-path="url(#clip0_150_408)">
<path d="M162.792 128.216C163.54 126.392 165.628 125.52 167.456 126.268C169.28 127.02 170.152 129.108 169.404 130.932L164.032 143.968C169.572 154.072 176.2 162.924 183.888 170.56C191.4 178.02 199.932 184.32 209.452 189.504L222.684 183.992C224.508 183.236 226.604 184.1 227.364 185.924C228.12 187.752 227.256 189.844 225.428 190.604L212.34 196.056C209.364 207.372 207.908 218.396 207.948 229.132C207.988 239.8 209.516 250.224 212.504 260.404L225.584 265.792C227.408 266.54 228.28 268.628 227.532 270.456C226.78 272.28 224.692 273.152 222.868 272.404L209.768 267.008C200.38 272.72 191.944 279.384 184.412 286.96C176.812 294.604 170.14 303.168 164.36 312.608L169.808 325.684C170.564 327.508 169.7 329.604 167.876 330.364C166.999 330.728 166.013 330.728 165.135 330.365C164.258 330.002 163.56 329.306 163.196 328.428L157.66 315.14C147.389 312.658 136.884 311.267 126.32 310.988C115.712 310.708 105.016 311.54 94.2401 313.448L88.0081 328.584C87.2601 330.408 85.1681 331.28 83.3441 330.532C81.5201 329.78 80.6481 327.692 81.3961 325.868L87.6961 310.572C81.5121 301.948 74.5121 294.128 66.7521 287.08C58.7281 279.792 49.9121 273.344 40.3641 267.708L28.1161 272.808C26.2881 273.564 24.1921 272.7 23.4361 270.876C22.6801 269.048 23.5441 266.956 25.3681 266.196L37.7721 261.032C40.9921 250.328 42.8041 239.604 42.8961 228.832C42.9881 218.052 41.3641 207.168 37.7161 196.156L25.2161 191.008C23.3921 190.26 22.5201 188.168 23.2681 186.344C24.0201 184.52 26.1081 183.648 27.9321 184.396L40.2641 189.476C49.5681 184.504 58.2321 178.504 66.0361 171.14C73.8161 163.796 80.7561 155.088 86.6481 144.692L80.9921 131.116C80.2361 129.288 81.1001 127.192 82.9241 126.436C84.7521 125.68 86.8441 126.544 87.6041 128.368L93.1521 141.692C103.632 144.46 114.268 145.788 125.04 145.76C135.584 145.728 146.308 144.392 157.188 141.824L162.792 128.216ZM86.5121 208.52C90.2361 206.432 93.7121 203.956 96.8681 200.98C100.116 197.912 103.036 194.308 105.544 190.048L99.6321 175.852C95.2481 180.792 90.7161 185.488 86.0521 189.976C81.4961 194.364 76.8201 198.548 72.0441 202.56L86.5121 208.52ZM112.208 187.428C116.436 188.432 120.716 188.916 125.04 188.904C129.42 188.892 133.888 188.368 138.436 187.356L144.224 173.296C137.788 173.844 131.388 174.14 125.04 174.152C118.704 174.164 112.468 173.904 106.34 173.34L112.208 187.428ZM145.024 190.128C147.344 194.124 150.06 197.66 153.168 200.748C156.252 203.808 159.72 206.428 163.564 208.624L177.812 202.688C173.268 198.924 168.796 194.86 164.404 190.496C159.808 185.924 155.312 181.028 150.924 175.804L145.024 190.128ZM166.336 215.22C165.212 219.848 164.664 224.356 164.676 228.752C164.692 233.052 165.26 237.272 166.364 241.404L180.724 247.316C180.167 241.034 179.885 234.731 179.88 228.424C179.868 222.048 180.128 215.66 180.644 209.26L166.336 215.22ZM163.816 248.084C159.996 250.504 156.528 253.284 153.416 256.42C150.344 259.508 147.616 262.928 145.22 266.664L151.104 280.792C155.116 275.905 159.355 271.209 163.808 266.72C168.272 262.22 172.964 257.936 177.908 253.888L163.816 248.084ZM138.668 269.56C134.372 268.583 129.989 268.032 125.584 267.916C121.304 267.804 116.988 268.096 112.636 268.784L106.972 282.54C113.304 282.292 119.644 282.24 125.98 282.408C132.204 282.572 138.376 282.948 144.496 283.536L138.668 269.56ZM105.968 266.2C103.375 262.699 100.444 259.462 97.2161 256.536C93.9201 253.54 90.3281 250.864 86.4641 248.5L72.6281 254.264C77.598 257.889 82.3676 261.78 86.9161 265.92C91.6241 270.204 96.1281 274.784 100.432 279.644L105.968 266.2ZM83.7601 241.872C85.0081 237.444 85.7081 233.024 85.7481 228.608C85.7841 224.16 85.1561 219.664 83.7521 215.112L69.5401 209.26C70.3001 215.804 70.6041 222.296 70.5561 228.74C70.5121 235.18 70.1241 241.532 69.5001 247.812L83.7601 241.872ZM101.16 205.536C98.8121 207.752 96.3081 209.72 93.6801 211.472L118.776 221.808L108.468 197.064C106.327 200.13 103.878 202.969 101.16 205.536ZM90.9761 218.088C91.7001 221.628 92.0281 225.148 92.0001 228.656C91.9681 232.096 91.5961 235.504 90.9241 238.884L116.052 228.416L90.9761 218.088ZM93.4521 245.588C96.2761 247.532 98.9401 249.636 101.432 251.904C104.041 254.269 106.473 256.823 108.708 259.544L118.808 235.024L93.4521 245.588ZM115.388 262.1C118.844 261.72 122.292 261.576 125.732 261.664C129.096 261.752 132.444 262.072 135.78 262.624L125.416 237.748L115.388 262.1ZM142.356 259.792C144.384 257.008 146.588 254.412 148.98 252.008C151.416 249.556 154.052 247.292 156.888 245.232L132.024 234.992L142.356 259.792ZM159.304 238.496C158.732 235.308 158.44 232.068 158.424 228.776V228.764C158.412 225.272 158.716 221.732 159.34 218.136L134.748 228.384L159.304 238.496ZM156.492 211.568C153.712 209.668 151.132 207.544 148.756 205.184C146.324 202.772 144.108 200.112 142.108 197.208L131.992 221.776L156.492 211.568ZM135.584 194.28C132.052 194.852 128.536 195.148 125.04 195.156C121.696 195.164 118.384 194.912 115.108 194.388L125.384 219.052L135.584 194.28ZM161.02 151.284L153.624 169.248C158.56 175.3 163.628 180.896 168.82 186.06C173.86 191.072 179.052 195.7 184.38 199.952L202.16 192.54C193.824 187.568 186.256 181.728 179.476 174.996C172.484 168.056 166.328 160.16 161.02 151.284ZM205.16 199.048L187.164 206.544C186.476 213.892 186.12 221.188 186.132 228.424C186.144 235.616 186.52 242.816 187.288 250.02L205.196 257.396C202.904 248.192 201.732 238.78 201.696 229.156C201.66 219.324 202.808 209.288 205.16 199.048ZM202.676 264.088L184.52 256.612C178.756 261.144 173.34 265.996 168.244 271.132C163.168 276.244 158.38 281.672 153.848 287.372L161.428 305.564C166.904 297.172 173.076 289.488 179.976 282.544C186.812 275.668 194.368 269.508 202.676 264.088ZM154.712 308.068L147.24 290.124C140.129 289.336 132.988 288.847 125.836 288.66C118.72 288.472 111.552 288.568 104.34 288.924L97.0481 306.636C106.896 305.12 116.704 304.476 126.468 304.736C135.936 304.988 145.352 306.088 154.712 308.068ZM90.4801 303.804L97.7681 286.108C93.0481 280.588 88.0281 275.4 82.7001 270.556C77.3735 265.705 71.7319 261.211 65.8121 257.104L47.5001 264.732C55.9361 270.012 63.7681 275.908 70.9681 282.444C78.0881 288.916 84.6081 296.028 90.4801 303.804ZM45.1521 257.956L62.9001 250.564C63.7281 243.264 64.2521 235.976 64.3041 228.716C64.3561 221.376 63.9401 213.984 62.8841 206.52L45.2081 199.24C47.9841 209.192 49.2321 219.068 49.1481 228.88C49.0641 238.664 47.6641 248.344 45.1521 257.956ZM47.6561 192.52L65.4921 199.864C71.0441 195.304 76.4641 190.52 81.7161 185.464C86.9641 180.412 92.0521 175.08 96.9481 169.412L89.6481 151.896C83.9801 161.076 77.4921 168.932 70.3241 175.696C63.3601 182.268 55.7601 187.808 47.6561 192.52ZM96.1441 148.868L103.596 166.764C110.684 167.548 117.836 167.916 125.04 167.9C132.208 167.888 139.504 167.492 146.916 166.764L154.28 148.888C144.452 150.924 134.7 151.984 125.04 152.012C115.284 152.036 105.648 151.008 96.1441 148.868Z" fill="black"/>
</g>
<path d="M70.9961 74.6299C70.4362 74.6299 69.9935 74.5713 69.668 74.4541C69.3425 74.3239 69.1537 74.1416 69.1016 73.9072L63.6133 51.6221C63.5612 51.4788 63.5352 51.3031 63.5352 51.0947C63.5352 50.8083 63.711 50.5869 64.0625 50.4307C64.4271 50.2614 64.974 50.1768 65.7031 50.1768H66.6016C67.9557 50.1768 68.7305 50.5413 68.9258 51.2705L71.5235 62.4424C71.5625 62.6377 71.7188 63.3734 71.9922 64.6494L72.5977 67.4424C72.7539 66.4919 73.0534 65.1702 73.4961 63.4775L73.7695 62.4424L76.6406 50.9189C76.6927 50.6585 76.875 50.4697 77.1875 50.3525C77.513 50.2354 77.9623 50.1768 78.5352 50.1768H79.8633C80.4362 50.1768 80.8789 50.2354 81.1914 50.3525C81.5169 50.4697 81.7057 50.6585 81.7578 50.9189L84.5117 62.4424C84.8503 63.8747 85.2474 65.6195 85.7031 67.6768C85.7552 67.4424 85.9375 66.6221 86.25 65.2158L86.875 62.4424L89.5703 51.2705C89.7656 50.5413 90.5404 50.1768 91.8945 50.1768H92.2852C93.0013 50.1768 93.5352 50.2614 93.8867 50.4307C94.2513 50.5869 94.4336 50.8083 94.4336 51.0947C94.4336 51.1859 94.4271 51.277 94.4141 51.3682C94.4011 51.4463 94.388 51.5309 94.375 51.6221L88.711 73.9072C88.6458 74.1416 88.4375 74.3239 88.086 74.4541C87.7344 74.5713 87.3047 74.6299 86.7969 74.6299H84.2578C83.75 74.6299 83.3203 74.5713 82.9688 74.4541C82.6172 74.3239 82.4154 74.1416 82.3633 73.9072L79.5117 61.8955L78.9649 59.5322L78.3594 61.8955L75.4102 73.9072C75.3451 74.1416 75.1367 74.3239 74.7852 74.4541C74.4336 74.5713 74.0039 74.6299 73.4961 74.6299H70.9961ZM104.121 74.8643C101.074 74.8643 98.8021 74.0505 97.3047 72.4229C95.8073 70.7822 95.0586 68.5101 95.0586 65.6064C95.0586 62.3382 95.8073 59.9424 97.3047 58.4189C98.8021 56.8955 100.866 56.1338 103.496 56.1338C105.241 56.1338 106.667 56.5309 107.773 57.3252C108.893 58.1195 109.707 59.1872 110.215 60.5283C110.736 61.8695 110.996 63.3864 110.996 65.0791C110.996 65.2744 110.879 65.5348 110.645 65.8604C110.423 66.1859 110.169 66.4788 109.883 66.7393C109.596 66.9997 109.375 67.1299 109.219 67.1299H100.371C100.488 68.458 100.879 69.402 101.543 69.9619C102.22 70.5088 103.158 70.7822 104.355 70.7822C105.007 70.7822 105.592 70.7106 106.113 70.5674C106.647 70.4111 107.214 70.2093 107.813 69.9619C108.177 69.7926 108.424 69.708 108.555 69.708C108.789 69.708 109.043 69.8773 109.316 70.2158C109.603 70.5413 109.844 70.9189 110.039 71.3486C110.247 71.7783 110.352 72.1104 110.352 72.3447C110.352 72.8786 109.987 73.3343 109.258 73.7119C108.542 74.0895 107.689 74.376 106.699 74.5713C105.723 74.7666 104.863 74.8643 104.121 74.8643ZM105.996 63.7119C105.996 62.6442 105.788 61.7913 105.371 61.1533C104.954 60.5023 104.329 60.1768 103.496 60.1768C101.777 60.1768 100.736 61.3551 100.371 63.7119H105.996ZM124.141 74.8643C123.112 74.8643 122.188 74.6234 121.367 74.1416C120.547 73.6468 119.928 73.0153 119.512 72.2471L119.414 72.6572C119.297 73.165 119.206 73.5231 119.141 73.7314C119.049 74.096 118.848 74.3369 118.535 74.4541C118.223 74.5713 117.76 74.6299 117.148 74.6299H116.738C115.345 74.6299 114.648 74.2653 114.648 73.5361V49.5127C114.648 49.1351 114.818 48.8551 115.156 48.6729C115.495 48.4775 116.022 48.3799 116.738 48.3799H117.695C119.089 48.3799 119.785 48.7575 119.785 49.5127V57.208C120.762 56.4919 121.94 56.1338 123.32 56.1338C124.857 56.1338 126.172 56.5179 127.266 57.2861C128.372 58.0413 129.212 59.1221 129.785 60.5283C130.358 61.9346 130.645 63.5817 130.645 65.4697C130.645 67.4359 130.365 69.1286 129.805 70.5479C129.258 71.9541 128.49 73.0283 127.5 73.7705C126.523 74.4997 125.404 74.8643 124.141 74.8643ZM122.637 70.6455C124.499 70.6455 125.43 68.9202 125.43 65.4697C125.43 61.9411 124.355 60.1768 122.207 60.1768C121.413 60.1768 120.605 60.3981 119.785 60.8408V68.5947C120.579 69.9619 121.53 70.6455 122.637 70.6455ZM138.945 74.8643C138.047 74.8643 137.155 74.7666 136.27 74.5713C135.384 74.376 134.648 74.096 134.063 73.7314C133.49 73.3669 133.203 72.9502 133.203 72.4814C133.203 72.195 133.307 71.8369 133.516 71.4072C133.724 70.9775 133.971 70.6064 134.258 70.2939C134.557 69.9684 134.818 69.8057 135.039 69.8057C135.156 69.8057 135.41 69.8968 135.801 70.0791C136.257 70.2874 136.693 70.4567 137.109 70.5869C137.526 70.7171 138.001 70.7822 138.535 70.7822C139.199 70.7822 139.701 70.6585 140.039 70.4111C140.378 70.1637 140.547 69.7992 140.547 69.3174C140.547 68.9528 140.443 68.6533 140.234 68.4189C140.039 68.1715 139.785 67.9697 139.473 67.8135C139.16 67.6572 138.717 67.4684 138.145 67.2471L137.578 67.0322C136.836 66.7458 136.185 66.4202 135.625 66.0557C135.065 65.6911 134.59 65.1637 134.199 64.4736C133.809 63.7705 133.613 62.8851 133.613 61.8174C133.613 60.6325 133.867 59.6169 134.375 58.7705C134.896 57.9111 135.632 57.2601 136.582 56.8174C137.533 56.3617 138.652 56.1338 139.941 56.1338C140.684 56.1338 141.458 56.2054 142.266 56.3486C143.073 56.4919 143.75 56.7132 144.297 57.0127C144.857 57.3122 145.137 57.6898 145.137 58.1455C145.137 58.4059 145.052 58.7575 144.883 59.2002C144.727 59.6429 144.531 60.0335 144.297 60.3721C144.063 60.7106 143.841 60.8799 143.633 60.8799C143.568 60.8799 143.385 60.8213 143.086 60.7041C142.682 60.5348 142.292 60.4046 141.914 60.3135C141.549 60.2093 141.126 60.1572 140.645 60.1572C139.421 60.1572 138.809 60.5609 138.809 61.3682C138.809 61.7327 138.919 62.0452 139.141 62.3057C139.375 62.5661 139.661 62.7809 140 62.9502C140.339 63.1195 140.814 63.3213 141.426 63.5557C142.129 63.8421 142.565 64.0244 142.734 64.1025C143.646 64.5583 144.375 65.1637 144.922 65.9189C145.482 66.6611 145.762 67.6572 145.762 68.9072C145.762 70.0921 145.495 71.1338 144.961 72.0322C144.427 72.9307 143.646 73.6273 142.617 74.1221C141.589 74.6169 140.365 74.8643 138.945 74.8643ZM150.586 53.4189C149.857 53.4189 149.323 53.3278 148.984 53.1455C148.659 52.9632 148.496 52.6833 148.496 52.3057V49.5127C148.496 49.1351 148.665 48.8551 149.004 48.6729C149.342 48.4775 149.87 48.3799 150.586 48.3799H151.543C152.259 48.3799 152.786 48.4775 153.125 48.6729C153.464 48.8551 153.633 49.1351 153.633 49.5127V52.3057C153.633 52.6833 153.464 52.9632 153.125 53.1455C152.799 53.3278 152.272 53.4189 151.543 53.4189H150.586ZM150.586 74.6299C149.193 74.6299 148.496 74.2653 148.496 73.5361V57.4424C148.496 57.0778 148.665 56.8044 149.004 56.6221C149.342 56.4398 149.87 56.3486 150.586 56.3486H151.543C152.259 56.3486 152.786 56.4398 153.125 56.6221C153.464 56.8044 153.633 57.0778 153.633 57.4424V73.5361C153.633 74.2653 152.936 74.6299 151.543 74.6299H150.586ZM163.418 74.8643C161.764 74.8643 160.501 74.402 159.629 73.4775C158.77 72.54 158.34 71.1208 158.34 69.2197V60.4697H157.793C157.428 60.4697 157.161 60.333 156.992 60.0596C156.836 59.7861 156.758 59.3434 156.758 58.7314V58.1455C156.758 57.5335 156.836 57.0908 156.992 56.8174C157.161 56.5439 157.428 56.4072 157.793 56.4072H158.34L158.789 53.1064C158.893 52.3773 159.518 52.0127 160.664 52.0127H161.758C162.357 52.0127 162.793 52.1038 163.066 52.2861C163.353 52.4684 163.496 52.7419 163.496 53.1064V56.4072H165.195C165.56 56.4072 165.82 56.5439 165.977 56.8174C166.146 57.0908 166.23 57.5335 166.23 58.1455V58.7314C166.23 59.3434 166.146 59.7861 165.977 60.0596C165.82 60.333 165.56 60.4697 165.195 60.4697H163.496V69.2783C163.496 69.8122 163.587 70.1963 163.77 70.4307C163.965 70.665 164.284 70.7822 164.727 70.7822C164.857 70.7822 165.033 70.7627 165.254 70.7236C165.475 70.6715 165.612 70.6455 165.664 70.6455C165.872 70.6455 166.055 70.8213 166.211 71.1729C166.38 71.5114 166.51 71.889 166.602 72.3057C166.706 72.7223 166.758 73.0023 166.758 73.1455C166.758 74.2913 165.645 74.8643 163.418 74.8643ZM178.105 74.8643C175.059 74.8643 172.786 74.0505 171.289 72.4229C169.792 70.7822 169.043 68.5101 169.043 65.6064C169.043 62.3382 169.792 59.9424 171.289 58.4189C172.786 56.8955 174.85 56.1338 177.48 56.1338C179.225 56.1338 180.651 56.5309 181.758 57.3252C182.878 58.1195 183.691 59.1872 184.199 60.5283C184.72 61.8695 184.98 63.3864 184.98 65.0791C184.98 65.2744 184.863 65.5348 184.629 65.8604C184.408 66.1859 184.154 66.4788 183.867 66.7393C183.581 66.9997 183.359 67.1299 183.203 67.1299H174.355C174.473 68.458 174.863 69.402 175.527 69.9619C176.204 70.5088 177.142 70.7822 178.34 70.7822C178.991 70.7822 179.577 70.7106 180.098 70.5674C180.632 70.4111 181.198 70.2093 181.797 69.9619C182.161 69.7926 182.409 69.708 182.539 69.708C182.773 69.708 183.027 69.8773 183.301 70.2158C183.587 70.5413 183.828 70.9189 184.023 71.3486C184.232 71.7783 184.336 72.1104 184.336 72.3447C184.336 72.8786 183.971 73.3343 183.242 73.7119C182.526 74.0895 181.673 74.376 180.684 74.5713C179.707 74.7666 178.848 74.8643 178.105 74.8643ZM179.98 63.7119C179.98 62.6442 179.772 61.7913 179.355 61.1533C178.939 60.5023 178.314 60.1768 177.48 60.1768C175.762 60.1768 174.72 61.3551 174.355 63.7119H179.98Z" fill="white"/>
</mask>
<g mask="url(#mask0_150_408)">
<rect width="250" height="357.143" fill="#4D314A"/>
</g>
<defs>
<clipPath id="clip0_150_408">
<rect width="204.8" height="204.8" fill="white" transform="translate(23 126)"/>
</clipPath>
</defs>
</svg>
