<svg width="250" height="358" viewBox="0 0 250 358" fill="none" xmlns="http://www.w3.org/2000/svg">
<mask id="mask0_150_408" style="mask-type:alpha" maskUnits="userSpaceOnUse" x="0" y="0" width="250" height="358">
<rect x="2.5" y="2.5" width="245" height="352.143" rx="2.5" stroke="white" stroke-width="5"/>
<g clip-path="url(#clip0_150_408)">
<path d="M162.792 128.216C163.54 126.392 165.628 125.52 167.456 126.268C169.28 127.02 170.152 129.108 169.404 130.932L164.032 143.968C169.572 154.072 176.2 162.924 183.888 170.56C191.4 178.02 199.932 184.32 209.452 189.504L222.684 183.992C224.508 183.236 226.604 184.1 227.364 185.924C228.12 187.752 227.256 189.844 225.428 190.604L212.34 196.056C209.364 207.372 207.908 218.396 207.948 229.132C207.988 239.8 209.516 250.224 212.504 260.404L225.584 265.792C227.408 266.54 228.28 268.628 227.532 270.456C226.78 272.28 224.692 273.152 222.868 272.404L209.768 267.008C200.38 272.72 191.944 279.384 184.412 286.96C176.812 294.604 170.14 303.168 164.36 312.608L169.808 325.684C170.564 327.508 169.7 329.604 167.876 330.364C166.999 330.728 166.013 330.728 165.135 330.365C164.258 330.002 163.56 329.306 163.196 328.428L157.66 315.14C147.389 312.658 136.884 311.267 126.32 310.988C115.712 310.708 105.016 311.54 94.2401 313.448L88.0081 328.584C87.2601 330.408 85.1681 331.28 83.3441 330.532C81.5201 329.78 80.6481 327.692 81.3961 325.868L87.6961 310.572C81.5121 301.948 74.5121 294.128 66.7521 287.08C58.7281 279.792 49.9121 273.344 40.3641 267.708L28.1161 272.808C26.2881 273.564 24.1921 272.7 23.4361 270.876C22.6801 269.048 23.5441 266.956 25.3681 266.196L37.7721 261.032C40.9921 250.328 42.8041 239.604 42.8961 228.832C42.9881 218.052 41.3641 207.168 37.7161 196.156L25.2161 191.008C23.3921 190.26 22.5201 188.168 23.2681 186.344C24.0201 184.52 26.1081 183.648 27.9321 184.396L40.2641 189.476C49.5681 184.504 58.2321 178.504 66.0361 171.14C73.8161 163.796 80.7561 155.088 86.6481 144.692L80.9921 131.116C80.2361 129.288 81.1001 127.192 82.9241 126.436C84.7521 125.68 86.8441 126.544 87.6041 128.368L93.1521 141.692C103.632 144.46 114.268 145.788 125.04 145.76C135.584 145.728 146.308 144.392 157.188 141.824L162.792 128.216ZM86.5121 208.52C90.2361 206.432 93.7121 203.956 96.8681 200.98C100.116 197.912 103.036 194.308 105.544 190.048L99.6321 175.852C95.2481 180.792 90.7161 185.488 86.0521 189.976C81.4961 194.364 76.8201 198.548 72.0441 202.56L86.5121 208.52ZM112.208 187.428C116.436 188.432 120.716 188.916 125.04 188.904C129.42 188.892 133.888 188.368 138.436 187.356L144.224 173.296C137.788 173.844 131.388 174.14 125.04 174.152C118.704 174.164 112.468 173.904 106.34 173.34L112.208 187.428ZM145.024 190.128C147.344 194.124 150.06 197.66 153.168 200.748C156.252 203.808 159.72 206.428 163.564 208.624L177.812 202.688C173.268 198.924 168.796 194.86 164.404 190.496C159.808 185.924 155.312 181.028 150.924 175.804L145.024 190.128ZM166.336 215.22C165.212 219.848 164.664 224.356 164.676 228.752C164.692 233.052 165.26 237.272 166.364 241.404L180.724 247.316C180.167 241.034 179.885 234.731 179.88 228.424C179.868 222.048 180.128 215.66 180.644 209.26L166.336 215.22ZM163.816 248.084C159.996 250.504 156.528 253.284 153.416 256.42C150.344 259.508 147.616 262.928 145.22 266.664L151.104 280.792C155.116 275.905 159.355 271.209 163.808 266.72C168.272 262.22 172.964 257.936 177.908 253.888L163.816 248.084ZM138.668 269.56C134.372 268.583 129.989 268.032 125.584 267.916C121.304 267.804 116.988 268.096 112.636 268.784L106.972 282.54C113.304 282.292 119.644 282.24 125.98 282.408C132.204 282.572 138.376 282.948 144.496 283.536L138.668 269.56ZM105.968 266.2C103.375 262.699 100.444 259.462 97.2161 256.536C93.9201 253.54 90.3281 250.864 86.4641 248.5L72.6281 254.264C77.598 257.889 82.3676 261.78 86.9161 265.92C91.6241 270.204 96.1281 274.784 100.432 279.644L105.968 266.2ZM83.7601 241.872C85.0081 237.444 85.7081 233.024 85.7481 228.608C85.7841 224.16 85.1561 219.664 83.7521 215.112L69.5401 209.26C70.3001 215.804 70.6041 222.296 70.5561 228.74C70.5121 235.18 70.1241 241.532 69.5001 247.812L83.7601 241.872ZM101.16 205.536C98.8121 207.752 96.3081 209.72 93.6801 211.472L118.776 221.808L108.468 197.064C106.327 200.13 103.878 202.969 101.16 205.536ZM90.9761 218.088C91.7001 221.628 92.0281 225.148 92.0001 228.656C91.9681 232.096 91.5961 235.504 90.9241 238.884L116.052 228.416L90.9761 218.088ZM93.4521 245.588C96.2761 247.532 98.9401 249.636 101.432 251.904C104.041 254.269 106.473 256.823 108.708 259.544L118.808 235.024L93.4521 245.588ZM115.388 262.1C118.844 261.72 122.292 261.576 125.732 261.664C129.096 261.752 132.444 262.072 135.78 262.624L125.416 237.748L115.388 262.1ZM142.356 259.792C144.384 257.008 146.588 254.412 148.98 252.008C151.416 249.556 154.052 247.292 156.888 245.232L132.024 234.992L142.356 259.792ZM159.304 238.496C158.732 235.308 158.44 232.068 158.424 228.776V228.764C158.412 225.272 158.716 221.732 159.34 218.136L134.748 228.384L159.304 238.496ZM156.492 211.568C153.712 209.668 151.132 207.544 148.756 205.184C146.324 202.772 144.108 200.112 142.108 197.208L131.992 221.776L156.492 211.568ZM135.584 194.28C132.052 194.852 128.536 195.148 125.04 195.156C121.696 195.164 118.384 194.912 115.108 194.388L125.384 219.052L135.584 194.28ZM161.02 151.284L153.624 169.248C158.56 175.3 163.628 180.896 168.82 186.06C173.86 191.072 179.052 195.7 184.38 199.952L202.16 192.54C193.824 187.568 186.256 181.728 179.476 174.996C172.484 168.056 166.328 160.16 161.02 151.284ZM205.16 199.048L187.164 206.544C186.476 213.892 186.12 221.188 186.132 228.424C186.144 235.616 186.52 242.816 187.288 250.02L205.196 257.396C202.904 248.192 201.732 238.78 201.696 229.156C201.66 219.324 202.808 209.288 205.16 199.048ZM202.676 264.088L184.52 256.612C178.756 261.144 173.34 265.996 168.244 271.132C163.168 276.244 158.38 281.672 153.848 287.372L161.428 305.564C166.904 297.172 173.076 289.488 179.976 282.544C186.812 275.668 194.368 269.508 202.676 264.088ZM154.712 308.068L147.24 290.124C140.129 289.336 132.988 288.847 125.836 288.66C118.72 288.472 111.552 288.568 104.34 288.924L97.0481 306.636C106.896 305.12 116.704 304.476 126.468 304.736C135.936 304.988 145.352 306.088 154.712 308.068ZM90.4801 303.804L97.7681 286.108C93.0481 280.588 88.0281 275.4 82.7001 270.556C77.3735 265.705 71.7319 261.211 65.8121 257.104L47.5001 264.732C55.9361 270.012 63.7681 275.908 70.9681 282.444C78.0881 288.916 84.6081 296.028 90.4801 303.804ZM45.1521 257.956L62.9001 250.564C63.7281 243.264 64.2521 235.976 64.3041 228.716C64.3561 221.376 63.9401 213.984 62.8841 206.52L45.2081 199.24C47.9841 209.192 49.2321 219.068 49.1481 228.88C49.0641 238.664 47.6641 248.344 45.1521 257.956ZM47.6561 192.52L65.4921 199.864C71.0441 195.304 76.4641 190.52 81.7161 185.464C86.9641 180.412 92.0521 175.08 96.9481 169.412L89.6481 151.896C83.9801 161.076 77.4921 168.932 70.3241 175.696C63.3601 182.268 55.7601 187.808 47.6561 192.52ZM96.1441 148.868L103.596 166.764C110.684 167.548 117.836 167.916 125.04 167.9C132.208 167.888 139.504 167.492 146.916 166.764L154.28 148.888C144.452 150.924 134.7 151.984 125.04 152.012C115.284 152.036 105.648 151.008 96.1441 148.868Z" fill="black"/>
</g>
<path d="M70.4961 64.0586C69.9362 64.0586 69.4935 64 69.168 63.8828C68.8424 63.7526 68.6536 63.5703 68.6016 63.3359L63.1133 41.0508C63.0612 40.9076 63.0352 40.7318 63.0352 40.5234C63.0352 40.237 63.2109 40.0156 63.5625 39.8594C63.9271 39.6901 64.474 39.6055 65.2031 39.6055H66.1016C67.4557 39.6055 68.2305 39.9701 68.4258 40.6992L71.0234 51.8711C71.0625 52.0664 71.2188 52.8021 71.4922 54.0781L72.0977 56.8711C72.2539 55.9206 72.5534 54.599 72.9961 52.9062L73.2695 51.8711L76.1406 40.3477C76.1927 40.0872 76.375 39.8984 76.6875 39.7812C77.013 39.6641 77.4622 39.6055 78.0352 39.6055H79.3633C79.9362 39.6055 80.3789 39.6641 80.6914 39.7812C81.0169 39.8984 81.2057 40.0872 81.2578 40.3477L84.0117 51.8711C84.3503 53.3034 84.7474 55.0482 85.2031 57.1055C85.2552 56.8711 85.4375 56.0508 85.75 54.6445L86.375 51.8711L89.0703 40.6992C89.2656 39.9701 90.0404 39.6055 91.3945 39.6055H91.7852C92.5013 39.6055 93.0352 39.6901 93.3867 39.8594C93.7513 40.0156 93.9336 40.237 93.9336 40.5234C93.9336 40.6146 93.9271 40.7057 93.9141 40.7969C93.901 40.875 93.888 40.9596 93.875 41.0508L88.2109 63.3359C88.1458 63.5703 87.9375 63.7526 87.5859 63.8828C87.2344 64 86.8047 64.0586 86.2969 64.0586H83.7578C83.25 64.0586 82.8203 64 82.4688 63.8828C82.1172 63.7526 81.9154 63.5703 81.8633 63.3359L79.0117 51.3242L78.4648 48.9609L77.8594 51.3242L74.9102 63.3359C74.8451 63.5703 74.6367 63.7526 74.2852 63.8828C73.9336 64 73.5039 64.0586 72.9961 64.0586H70.4961ZM103.621 64.293C100.574 64.293 98.3021 63.4792 96.8047 61.8516C95.3073 60.2109 94.5586 57.9388 94.5586 55.0352C94.5586 51.7669 95.3073 49.3711 96.8047 47.8477C98.3021 46.3242 100.366 45.5625 102.996 45.5625C104.741 45.5625 106.167 45.9596 107.273 46.7539C108.393 47.5482 109.207 48.6159 109.715 49.957C110.236 51.2982 110.496 52.8151 110.496 54.5078C110.496 54.7031 110.379 54.9635 110.145 55.2891C109.923 55.6146 109.669 55.9076 109.383 56.168C109.096 56.4284 108.875 56.5586 108.719 56.5586H99.8711C99.9883 57.8867 100.379 58.8307 101.043 59.3906C101.72 59.9375 102.658 60.2109 103.855 60.2109C104.507 60.2109 105.092 60.1393 105.613 59.9961C106.147 59.8398 106.714 59.638 107.312 59.3906C107.677 59.2214 107.924 59.1367 108.055 59.1367C108.289 59.1367 108.543 59.306 108.816 59.6445C109.103 59.9701 109.344 60.3477 109.539 60.7773C109.747 61.207 109.852 61.5391 109.852 61.7734C109.852 62.3073 109.487 62.763 108.758 63.1406C108.042 63.5182 107.189 63.8047 106.199 64C105.223 64.1953 104.363 64.293 103.621 64.293ZM105.496 53.1406C105.496 52.0729 105.288 51.2201 104.871 50.582C104.454 49.931 103.829 49.6055 102.996 49.6055C101.277 49.6055 100.236 50.7839 99.8711 53.1406H105.496ZM123.641 64.293C122.612 64.293 121.688 64.0521 120.867 63.5703C120.047 63.0755 119.428 62.444 119.012 61.6758L118.914 62.0859C118.797 62.5938 118.706 62.9518 118.641 63.1602C118.549 63.5247 118.348 63.7656 118.035 63.8828C117.723 64 117.26 64.0586 116.648 64.0586H116.238C114.845 64.0586 114.148 63.694 114.148 62.9648V38.9414C114.148 38.5638 114.318 38.2839 114.656 38.1016C114.995 37.9062 115.522 37.8086 116.238 37.8086H117.195C118.589 37.8086 119.285 38.1862 119.285 38.9414V46.6367C120.262 45.9206 121.44 45.5625 122.82 45.5625C124.357 45.5625 125.672 45.9466 126.766 46.7148C127.872 47.4701 128.712 48.5508 129.285 49.957C129.858 51.3633 130.145 53.0104 130.145 54.8984C130.145 56.8646 129.865 58.5573 129.305 59.9766C128.758 61.3828 127.99 62.457 127 63.1992C126.023 63.9284 124.904 64.293 123.641 64.293ZM122.137 60.0742C123.999 60.0742 124.93 58.349 124.93 54.8984C124.93 51.3698 123.855 49.6055 121.707 49.6055C120.913 49.6055 120.105 49.8268 119.285 50.2695V58.0234C120.079 59.3906 121.03 60.0742 122.137 60.0742ZM138.445 64.293C137.547 64.293 136.655 64.1953 135.77 64C134.884 63.8047 134.148 63.5247 133.562 63.1602C132.99 62.7956 132.703 62.3789 132.703 61.9102C132.703 61.6237 132.807 61.2656 133.016 60.8359C133.224 60.4062 133.471 60.0352 133.758 59.7227C134.057 59.3971 134.318 59.2344 134.539 59.2344C134.656 59.2344 134.91 59.3255 135.301 59.5078C135.757 59.7161 136.193 59.8854 136.609 60.0156C137.026 60.1458 137.501 60.2109 138.035 60.2109C138.699 60.2109 139.201 60.0872 139.539 59.8398C139.878 59.5924 140.047 59.2279 140.047 58.7461C140.047 58.3815 139.943 58.082 139.734 57.8477C139.539 57.6003 139.285 57.3984 138.973 57.2422C138.66 57.0859 138.217 56.8971 137.645 56.6758L137.078 56.4609C136.336 56.1745 135.685 55.849 135.125 55.4844C134.565 55.1198 134.09 54.5924 133.699 53.9023C133.309 53.1992 133.113 52.3138 133.113 51.2461C133.113 50.0612 133.367 49.0456 133.875 48.1992C134.396 47.3398 135.132 46.6888 136.082 46.2461C137.033 45.7904 138.152 45.5625 139.441 45.5625C140.184 45.5625 140.958 45.6341 141.766 45.7773C142.573 45.9206 143.25 46.1419 143.797 46.4414C144.357 46.7409 144.637 47.1185 144.637 47.5742C144.637 47.8346 144.552 48.1862 144.383 48.6289C144.227 49.0716 144.031 49.4622 143.797 49.8008C143.562 50.1393 143.341 50.3086 143.133 50.3086C143.068 50.3086 142.885 50.25 142.586 50.1328C142.182 49.9635 141.792 49.8333 141.414 49.7422C141.049 49.638 140.626 49.5859 140.145 49.5859C138.921 49.5859 138.309 49.9896 138.309 50.7969C138.309 51.1615 138.419 51.474 138.641 51.7344C138.875 51.9948 139.161 52.2096 139.5 52.3789C139.839 52.5482 140.314 52.75 140.926 52.9844C141.629 53.2708 142.065 53.4531 142.234 53.5312C143.146 53.987 143.875 54.5924 144.422 55.3477C144.982 56.0898 145.262 57.0859 145.262 58.3359C145.262 59.5208 144.995 60.5625 144.461 61.4609C143.927 62.3594 143.146 63.056 142.117 63.5508C141.089 64.0456 139.865 64.293 138.445 64.293ZM150.086 42.8477C149.357 42.8477 148.823 42.7565 148.484 42.5742C148.159 42.3919 147.996 42.112 147.996 41.7344V38.9414C147.996 38.5638 148.165 38.2839 148.504 38.1016C148.842 37.9062 149.37 37.8086 150.086 37.8086H151.043C151.759 37.8086 152.286 37.9062 152.625 38.1016C152.964 38.2839 153.133 38.5638 153.133 38.9414V41.7344C153.133 42.112 152.964 42.3919 152.625 42.5742C152.299 42.7565 151.772 42.8477 151.043 42.8477H150.086ZM150.086 64.0586C148.693 64.0586 147.996 63.694 147.996 62.9648V46.8711C147.996 46.5065 148.165 46.2331 148.504 46.0508C148.842 45.8685 149.37 45.7773 150.086 45.7773H151.043C151.759 45.7773 152.286 45.8685 152.625 46.0508C152.964 46.2331 153.133 46.5065 153.133 46.8711V62.9648C153.133 63.694 152.436 64.0586 151.043 64.0586H150.086ZM162.918 64.293C161.264 64.293 160.001 63.8307 159.129 62.9062C158.27 61.9688 157.84 60.5495 157.84 58.6484V49.8984H157.293C156.928 49.8984 156.661 49.7617 156.492 49.4883C156.336 49.2148 156.258 48.7721 156.258 48.1602V47.5742C156.258 46.9622 156.336 46.5195 156.492 46.2461C156.661 45.9727 156.928 45.8359 157.293 45.8359H157.84L158.289 42.5352C158.393 41.806 159.018 41.4414 160.164 41.4414H161.258C161.857 41.4414 162.293 41.5326 162.566 41.7148C162.853 41.8971 162.996 42.1706 162.996 42.5352V45.8359H164.695C165.06 45.8359 165.32 45.9727 165.477 46.2461C165.646 46.5195 165.73 46.9622 165.73 47.5742V48.1602C165.73 48.7721 165.646 49.2148 165.477 49.4883C165.32 49.7617 165.06 49.8984 164.695 49.8984H162.996V58.707C162.996 59.2409 163.087 59.625 163.27 59.8594C163.465 60.0938 163.784 60.2109 164.227 60.2109C164.357 60.2109 164.533 60.1914 164.754 60.1523C164.975 60.1003 165.112 60.0742 165.164 60.0742C165.372 60.0742 165.555 60.25 165.711 60.6016C165.88 60.9401 166.01 61.3177 166.102 61.7344C166.206 62.151 166.258 62.431 166.258 62.5742C166.258 63.7201 165.145 64.293 162.918 64.293ZM177.605 64.293C174.559 64.293 172.286 63.4792 170.789 61.8516C169.292 60.2109 168.543 57.9388 168.543 55.0352C168.543 51.7669 169.292 49.3711 170.789 47.8477C172.286 46.3242 174.35 45.5625 176.98 45.5625C178.725 45.5625 180.151 45.9596 181.258 46.7539C182.378 47.5482 183.191 48.6159 183.699 49.957C184.22 51.2982 184.48 52.8151 184.48 54.5078C184.48 54.7031 184.363 54.9635 184.129 55.2891C183.908 55.6146 183.654 55.9076 183.367 56.168C183.081 56.4284 182.859 56.5586 182.703 56.5586H173.855C173.973 57.8867 174.363 58.8307 175.027 59.3906C175.704 59.9375 176.642 60.2109 177.84 60.2109C178.491 60.2109 179.077 60.1393 179.598 59.9961C180.132 59.8398 180.698 59.638 181.297 59.3906C181.661 59.2214 181.909 59.1367 182.039 59.1367C182.273 59.1367 182.527 59.306 182.801 59.6445C183.087 59.9701 183.328 60.3477 183.523 60.7773C183.732 61.207 183.836 61.5391 183.836 61.7734C183.836 62.3073 183.471 62.763 182.742 63.1406C182.026 63.5182 181.173 63.8047 180.184 64C179.207 64.1953 178.348 64.293 177.605 64.293ZM179.48 53.1406C179.48 52.0729 179.272 51.2201 178.855 50.582C178.439 49.931 177.814 49.6055 176.98 49.6055C175.262 49.6055 174.22 50.7839 173.855 53.1406H179.48Z" fill="white"/>
<path d="M26.8281 103.023C26.2708 103.023 25.9922 102.878 25.9922 102.586V95.0938H23.7891C23.6432 95.0938 23.5365 95.0391 23.4688 94.9297C23.4062 94.8203 23.375 94.6432 23.375 94.3984V93.9766C23.375 93.7318 23.4062 93.5547 23.4688 93.4453C23.5365 93.3359 23.6432 93.2812 23.7891 93.2812H30.3594C30.5052 93.2812 30.6094 93.3359 30.6719 93.4453C30.7396 93.5547 30.7734 93.7318 30.7734 93.9766V94.3984C30.7734 94.6432 30.7396 94.8203 30.6719 94.9297C30.6094 95.0391 30.5052 95.0938 30.3594 95.0938H28.1484V102.586C28.1484 102.878 27.8698 103.023 27.3125 103.023H26.8281ZM32.6406 103.023C32.0833 103.023 31.8047 102.878 31.8047 102.586V92.9766C31.8047 92.8255 31.8724 92.7135 32.0078 92.6406C32.1432 92.5625 32.3542 92.5234 32.6406 92.5234H33.0234C33.5807 92.5234 33.8594 92.6745 33.8594 92.9766V96.5625C34.0885 96.2865 34.3724 96.0625 34.7109 95.8906C35.0547 95.7135 35.4219 95.625 35.8125 95.625C36.5104 95.625 37.0339 95.8099 37.3828 96.1797C37.7318 96.5443 37.9062 97.1068 37.9062 97.8672V102.586C37.9062 102.878 37.6302 103.023 37.0781 103.023H36.6953C36.1328 103.023 35.8516 102.878 35.8516 102.586V98.1797C35.8516 97.6068 35.5547 97.3203 34.9609 97.3203C34.7109 97.3203 34.4896 97.4036 34.2969 97.5703C34.1094 97.7318 33.9635 97.9167 33.8594 98.125V102.586C33.8594 102.878 33.5807 103.023 33.0234 103.023H32.6406ZM40.3984 94.5391C40.1068 94.5391 39.8932 94.5026 39.7578 94.4297C39.6276 94.3568 39.5625 94.2448 39.5625 94.0938V92.9766C39.5625 92.8255 39.6302 92.7135 39.7656 92.6406C39.901 92.5625 40.112 92.5234 40.3984 92.5234H40.7812C41.0677 92.5234 41.2786 92.5625 41.4141 92.6406C41.5495 92.7135 41.6172 92.8255 41.6172 92.9766V94.0938C41.6172 94.2448 41.5495 94.3568 41.4141 94.4297C41.2839 94.5026 41.0729 94.5391 40.7812 94.5391H40.3984ZM40.3984 103.023C39.8411 103.023 39.5625 102.878 39.5625 102.586V96.1484C39.5625 96.0026 39.6302 95.8932 39.7656 95.8203C39.901 95.7474 40.112 95.7109 40.3984 95.7109H40.7812C41.0677 95.7109 41.2786 95.7474 41.4141 95.8203C41.5495 95.8932 41.6172 96.0026 41.6172 96.1484V102.586C41.6172 102.878 41.3385 103.023 40.7812 103.023H40.3984ZM45.1641 103.117C44.8047 103.117 44.4479 103.078 44.0938 103C43.7396 102.922 43.4453 102.81 43.2109 102.664C42.9818 102.518 42.8672 102.352 42.8672 102.164C42.8672 102.049 42.9089 101.906 42.9922 101.734C43.0755 101.562 43.1745 101.414 43.2891 101.289C43.4089 101.159 43.513 101.094 43.6016 101.094C43.6484 101.094 43.75 101.13 43.9062 101.203C44.0885 101.286 44.263 101.354 44.4297 101.406C44.5964 101.458 44.7865 101.484 45 101.484C45.2656 101.484 45.4661 101.435 45.6016 101.336C45.737 101.237 45.8047 101.091 45.8047 100.898C45.8047 100.753 45.763 100.633 45.6797 100.539C45.6016 100.44 45.5 100.359 45.375 100.297C45.25 100.234 45.0729 100.159 44.8438 100.07L44.6172 99.9844C44.3203 99.8698 44.0599 99.7396 43.8359 99.5938C43.612 99.4479 43.4219 99.237 43.2656 98.9609C43.1094 98.6797 43.0312 98.3255 43.0312 97.8984C43.0312 97.4245 43.1328 97.0182 43.3359 96.6797C43.5443 96.3359 43.8385 96.0755 44.2188 95.8984C44.599 95.7161 45.0469 95.625 45.5625 95.625C45.8594 95.625 46.1693 95.6536 46.4922 95.7109C46.8151 95.7682 47.0859 95.8568 47.3047 95.9766C47.5286 96.0964 47.6406 96.2474 47.6406 96.4297C47.6406 96.5339 47.6068 96.6745 47.5391 96.8516C47.4766 97.0286 47.3984 97.1849 47.3047 97.3203C47.2109 97.4557 47.1224 97.5234 47.0391 97.5234C47.013 97.5234 46.9401 97.5 46.8203 97.4531C46.6589 97.3854 46.5026 97.3333 46.3516 97.2969C46.2057 97.2552 46.0365 97.2344 45.8438 97.2344C45.3542 97.2344 45.1094 97.3958 45.1094 97.7188C45.1094 97.8646 45.1536 97.9896 45.2422 98.0938C45.3359 98.1979 45.4505 98.2839 45.5859 98.3516C45.7214 98.4193 45.9115 98.5 46.1562 98.5938C46.4375 98.7083 46.612 98.7812 46.6797 98.8125C47.0443 98.9948 47.3359 99.237 47.5547 99.5391C47.7786 99.8359 47.8906 100.234 47.8906 100.734C47.8906 101.208 47.7839 101.625 47.5703 101.984C47.3568 102.344 47.0443 102.622 46.6328 102.82C46.2214 103.018 45.7318 103.117 45.1641 103.117ZM54.3047 103.023C53.8411 103.023 53.5833 102.927 53.5312 102.734L51.7891 96.2812C51.7682 96.2188 51.7578 96.1484 51.7578 96.0703C51.7578 95.8307 52.0469 95.7109 52.625 95.7109C53 95.7109 53.2682 95.7344 53.4297 95.7812C53.5964 95.8229 53.6927 95.8958 53.7188 96L54.6641 99.6641C54.6849 99.737 54.7109 99.8464 54.7422 99.9922L54.8125 100.281C54.8698 100.047 54.9271 99.8281 54.9844 99.625L55.8672 96C55.9036 95.8073 56.1615 95.7109 56.6406 95.7109H56.9688C57.1771 95.7109 57.3516 95.737 57.4922 95.7891C57.6328 95.8359 57.7135 95.9062 57.7344 96L58.625 99.7109C58.6302 99.7526 58.651 99.8359 58.6875 99.9609L58.7578 100.281L58.9219 99.6641L59.8828 96C59.9453 95.8073 60.2188 95.7109 60.7031 95.7109C61.276 95.7109 61.5625 95.8307 61.5625 96.0703C61.5625 96.0859 61.5521 96.1562 61.5312 96.2812L59.8984 102.734C59.8724 102.828 59.7891 102.901 59.6484 102.953C59.5078 103 59.3359 103.023 59.1328 103.023H58.4531C57.9948 103.023 57.7422 102.927 57.6953 102.734L56.8438 99.4297C56.8073 99.2995 56.7578 99.099 56.6953 98.8281L56.5312 99.4453L55.7422 102.734C55.7214 102.828 55.6406 102.901 55.5 102.953C55.3594 103 55.1875 103.023 54.9844 103.023H54.3047ZM66.0938 103.117C64.875 103.117 63.9661 102.792 63.3672 102.141C62.7682 101.484 62.4688 100.576 62.4688 99.4141C62.4688 98.1068 62.7682 97.1484 63.3672 96.5391C63.9661 95.9297 64.7917 95.625 65.8438 95.625C66.5417 95.625 67.112 95.7839 67.5547 96.1016C68.0026 96.4193 68.3281 96.8464 68.5312 97.3828C68.7396 97.9193 68.8438 98.526 68.8438 99.2031C68.8438 99.2812 68.7969 99.3854 68.7031 99.5156C68.6146 99.6458 68.513 99.763 68.3984 99.8672C68.2839 99.9714 68.1953 100.023 68.1328 100.023H64.5938C64.6406 100.555 64.7969 100.932 65.0625 101.156C65.3333 101.375 65.7083 101.484 66.1875 101.484C66.4479 101.484 66.6823 101.456 66.8906 101.398C67.1042 101.336 67.3307 101.255 67.5703 101.156C67.7161 101.089 67.8151 101.055 67.8672 101.055C67.9609 101.055 68.0625 101.122 68.1719 101.258C68.2865 101.388 68.3828 101.539 68.4609 101.711C68.5443 101.883 68.5859 102.016 68.5859 102.109C68.5859 102.323 68.4401 102.505 68.1484 102.656C67.862 102.807 67.5208 102.922 67.125 103C66.7344 103.078 66.3906 103.117 66.0938 103.117ZM66.8438 98.6562C66.8438 98.2292 66.7604 97.888 66.5938 97.6328C66.4271 97.3724 66.1771 97.2422 65.8438 97.2422C65.1562 97.2422 64.7396 97.7135 64.5938 98.6562H66.8438ZM74.1016 103.117C73.6901 103.117 73.3203 103.021 72.9922 102.828C72.6641 102.63 72.4167 102.378 72.25 102.07L72.2109 102.234C72.1641 102.438 72.1276 102.581 72.1016 102.664C72.0651 102.81 71.9844 102.906 71.8594 102.953C71.7344 103 71.5495 103.023 71.3047 103.023H71.1406C70.5833 103.023 70.3047 102.878 70.3047 102.586V92.9766C70.3047 92.8255 70.3724 92.7135 70.5078 92.6406C70.6432 92.5625 70.8542 92.5234 71.1406 92.5234H71.5234C72.0807 92.5234 72.3594 92.6745 72.3594 92.9766V96.0547C72.75 95.7682 73.2214 95.625 73.7734 95.625C74.388 95.625 74.9141 95.7786 75.3516 96.0859C75.7943 96.388 76.1302 96.8203 76.3594 97.3828C76.5885 97.9453 76.7031 98.6042 76.7031 99.3594C76.7031 100.146 76.5911 100.823 76.3672 101.391C76.1484 101.953 75.8411 102.383 75.4453 102.68C75.0547 102.971 74.6068 103.117 74.1016 103.117ZM73.5 101.43C74.2448 101.43 74.6172 100.74 74.6172 99.3594C74.6172 97.9479 74.1875 97.2422 73.3281 97.2422C73.0104 97.2422 72.6875 97.3307 72.3594 97.5078V100.609C72.6771 101.156 73.0573 101.43 73.5 101.43ZM80.0234 103.117C79.6641 103.117 79.3073 103.078 78.9531 103C78.599 102.922 78.3047 102.81 78.0703 102.664C77.8411 102.518 77.7266 102.352 77.7266 102.164C77.7266 102.049 77.7682 101.906 77.8516 101.734C77.9349 101.562 78.0339 101.414 78.1484 101.289C78.2682 101.159 78.3724 101.094 78.4609 101.094C78.5078 101.094 78.6094 101.13 78.7656 101.203C78.9479 101.286 79.1224 101.354 79.2891 101.406C79.4557 101.458 79.6458 101.484 79.8594 101.484C80.125 101.484 80.3255 101.435 80.4609 101.336C80.5964 101.237 80.6641 101.091 80.6641 100.898C80.6641 100.753 80.6224 100.633 80.5391 100.539C80.4609 100.44 80.3594 100.359 80.2344 100.297C80.1094 100.234 79.9323 100.159 79.7031 100.07L79.4766 99.9844C79.1797 99.8698 78.9193 99.7396 78.6953 99.5938C78.4714 99.4479 78.2812 99.237 78.125 98.9609C77.9688 98.6797 77.8906 98.3255 77.8906 97.8984C77.8906 97.4245 77.9922 97.0182 78.1953 96.6797C78.4036 96.3359 78.6979 96.0755 79.0781 95.8984C79.4583 95.7161 79.9062 95.625 80.4219 95.625C80.7188 95.625 81.0286 95.6536 81.3516 95.7109C81.6745 95.7682 81.9453 95.8568 82.1641 95.9766C82.388 96.0964 82.5 96.2474 82.5 96.4297C82.5 96.5339 82.4661 96.6745 82.3984 96.8516C82.3359 97.0286 82.2578 97.1849 82.1641 97.3203C82.0703 97.4557 81.9818 97.5234 81.8984 97.5234C81.8724 97.5234 81.7995 97.5 81.6797 97.4531C81.5182 97.3854 81.362 97.3333 81.2109 97.2969C81.0651 97.2552 80.8958 97.2344 80.7031 97.2344C80.2135 97.2344 79.9688 97.3958 79.9688 97.7188C79.9688 97.8646 80.013 97.9896 80.1016 98.0938C80.1953 98.1979 80.3099 98.2839 80.4453 98.3516C80.5807 98.4193 80.7708 98.5 81.0156 98.5938C81.2969 98.7083 81.4714 98.7812 81.5391 98.8125C81.9036 98.9948 82.1953 99.237 82.4141 99.5391C82.638 99.8359 82.75 100.234 82.75 100.734C82.75 101.208 82.6432 101.625 82.4297 101.984C82.2161 102.344 81.9036 102.622 81.4922 102.82C81.0807 103.018 80.5911 103.117 80.0234 103.117ZM84.6797 94.5391C84.388 94.5391 84.1745 94.5026 84.0391 94.4297C83.9089 94.3568 83.8438 94.2448 83.8438 94.0938V92.9766C83.8438 92.8255 83.9115 92.7135 84.0469 92.6406C84.1823 92.5625 84.3932 92.5234 84.6797 92.5234H85.0625C85.349 92.5234 85.5599 92.5625 85.6953 92.6406C85.8307 92.7135 85.8984 92.8255 85.8984 92.9766V94.0938C85.8984 94.2448 85.8307 94.3568 85.6953 94.4297C85.5651 94.5026 85.3542 94.5391 85.0625 94.5391H84.6797ZM84.6797 103.023C84.1224 103.023 83.8438 102.878 83.8438 102.586V96.1484C83.8438 96.0026 83.9115 95.8932 84.0469 95.8203C84.1823 95.7474 84.3932 95.7109 84.6797 95.7109H85.0625C85.349 95.7109 85.5599 95.7474 85.6953 95.8203C85.8307 95.8932 85.8984 96.0026 85.8984 96.1484V102.586C85.8984 102.878 85.6198 103.023 85.0625 103.023H84.6797ZM89.8125 103.117C89.151 103.117 88.6458 102.932 88.2969 102.562C87.9531 102.188 87.7812 101.62 87.7812 100.859V97.3594H87.5625C87.4167 97.3594 87.3099 97.3047 87.2422 97.1953C87.1797 97.0859 87.1484 96.9089 87.1484 96.6641V96.4297C87.1484 96.1849 87.1797 96.0078 87.2422 95.8984C87.3099 95.7891 87.4167 95.7344 87.5625 95.7344H87.7812L87.9609 94.4141C88.0026 94.1224 88.2526 93.9766 88.7109 93.9766H89.1484C89.388 93.9766 89.5625 94.013 89.6719 94.0859C89.7865 94.1589 89.8438 94.2682 89.8438 94.4141V95.7344H90.5234C90.6693 95.7344 90.7734 95.7891 90.8359 95.8984C90.9036 96.0078 90.9375 96.1849 90.9375 96.4297V96.6641C90.9375 96.9089 90.9036 97.0859 90.8359 97.1953C90.7734 97.3047 90.6693 97.3594 90.5234 97.3594H89.8438V100.883C89.8438 101.096 89.8802 101.25 89.9531 101.344C90.0312 101.438 90.1589 101.484 90.3359 101.484C90.388 101.484 90.4583 101.477 90.5469 101.461C90.6354 101.44 90.6901 101.43 90.7109 101.43C90.7943 101.43 90.8672 101.5 90.9297 101.641C90.9974 101.776 91.0495 101.927 91.0859 102.094C91.1276 102.26 91.1484 102.372 91.1484 102.43C91.1484 102.888 90.7031 103.117 89.8125 103.117ZM95.6875 103.117C94.4688 103.117 93.5599 102.792 92.9609 102.141C92.362 101.484 92.0625 100.576 92.0625 99.4141C92.0625 98.1068 92.362 97.1484 92.9609 96.5391C93.5599 95.9297 94.3854 95.625 95.4375 95.625C96.1354 95.625 96.7057 95.7839 97.1484 96.1016C97.5964 96.4193 97.9219 96.8464 98.125 97.3828C98.3333 97.9193 98.4375 98.526 98.4375 99.2031C98.4375 99.2812 98.3906 99.3854 98.2969 99.5156C98.2083 99.6458 98.1068 99.763 97.9922 99.8672C97.8776 99.9714 97.7891 100.023 97.7266 100.023H94.1875C94.2344 100.555 94.3906 100.932 94.6562 101.156C94.9271 101.375 95.3021 101.484 95.7812 101.484C96.0417 101.484 96.276 101.456 96.4844 101.398C96.6979 101.336 96.9245 101.255 97.1641 101.156C97.3099 101.089 97.4089 101.055 97.4609 101.055C97.5547 101.055 97.6562 101.122 97.7656 101.258C97.8802 101.388 97.9766 101.539 98.0547 101.711C98.138 101.883 98.1797 102.016 98.1797 102.109C98.1797 102.323 98.0339 102.505 97.7422 102.656C97.4557 102.807 97.1146 102.922 96.7188 103C96.3281 103.078 95.9844 103.117 95.6875 103.117ZM96.4375 98.6562C96.4375 98.2292 96.3542 97.888 96.1875 97.6328C96.0208 97.3724 95.7708 97.2422 95.4375 97.2422C94.75 97.2422 94.3333 97.7135 94.1875 98.6562H96.4375ZM103.977 94.5391C103.685 94.5391 103.471 94.5026 103.336 94.4297C103.206 94.3568 103.141 94.2448 103.141 94.0938V92.9766C103.141 92.8255 103.208 92.7135 103.344 92.6406C103.479 92.5625 103.69 92.5234 103.977 92.5234H104.359C104.646 92.5234 104.857 92.5625 104.992 92.6406C105.128 92.7135 105.195 92.8255 105.195 92.9766V94.0938C105.195 94.2448 105.128 94.3568 104.992 94.4297C104.862 94.5026 104.651 94.5391 104.359 94.5391H103.977ZM103.977 103.023C103.419 103.023 103.141 102.878 103.141 102.586V96.1484C103.141 96.0026 103.208 95.8932 103.344 95.8203C103.479 95.7474 103.69 95.7109 103.977 95.7109H104.359C104.646 95.7109 104.857 95.7474 104.992 95.8203C105.128 95.8932 105.195 96.0026 105.195 96.1484V102.586C105.195 102.878 104.917 103.023 104.359 103.023H103.977ZM108.742 103.117C108.383 103.117 108.026 103.078 107.672 103C107.318 102.922 107.023 102.81 106.789 102.664C106.56 102.518 106.445 102.352 106.445 102.164C106.445 102.049 106.487 101.906 106.57 101.734C106.654 101.562 106.753 101.414 106.867 101.289C106.987 101.159 107.091 101.094 107.18 101.094C107.227 101.094 107.328 101.13 107.484 101.203C107.667 101.286 107.841 101.354 108.008 101.406C108.174 101.458 108.365 101.484 108.578 101.484C108.844 101.484 109.044 101.435 109.18 101.336C109.315 101.237 109.383 101.091 109.383 100.898C109.383 100.753 109.341 100.633 109.258 100.539C109.18 100.44 109.078 100.359 108.953 100.297C108.828 100.234 108.651 100.159 108.422 100.07L108.195 99.9844C107.898 99.8698 107.638 99.7396 107.414 99.5938C107.19 99.4479 107 99.237 106.844 98.9609C106.688 98.6797 106.609 98.3255 106.609 97.8984C106.609 97.4245 106.711 97.0182 106.914 96.6797C107.122 96.3359 107.417 96.0755 107.797 95.8984C108.177 95.7161 108.625 95.625 109.141 95.625C109.438 95.625 109.747 95.6536 110.07 95.7109C110.393 95.7682 110.664 95.8568 110.883 95.9766C111.107 96.0964 111.219 96.2474 111.219 96.4297C111.219 96.5339 111.185 96.6745 111.117 96.8516C111.055 97.0286 110.977 97.1849 110.883 97.3203C110.789 97.4557 110.701 97.5234 110.617 97.5234C110.591 97.5234 110.518 97.5 110.398 97.4531C110.237 97.3854 110.081 97.3333 109.93 97.2969C109.784 97.2552 109.615 97.2344 109.422 97.2344C108.932 97.2344 108.688 97.3958 108.688 97.7188C108.688 97.8646 108.732 97.9896 108.82 98.0938C108.914 98.1979 109.029 98.2839 109.164 98.3516C109.299 98.4193 109.49 98.5 109.734 98.5938C110.016 98.7083 110.19 98.7812 110.258 98.8125C110.622 98.9948 110.914 99.237 111.133 99.5391C111.357 99.8359 111.469 100.234 111.469 100.734C111.469 101.208 111.362 101.625 111.148 101.984C110.935 102.344 110.622 102.622 110.211 102.82C109.799 103.018 109.31 103.117 108.742 103.117ZM116.844 103.023C116.286 103.023 116.008 102.878 116.008 102.586V92.9766C116.008 92.8255 116.076 92.7135 116.211 92.6406C116.346 92.5625 116.557 92.5234 116.844 92.5234H117.227C117.784 92.5234 118.062 92.6745 118.062 92.9766V96.5625C118.292 96.2865 118.576 96.0625 118.914 95.8906C119.258 95.7135 119.625 95.625 120.016 95.625C120.714 95.625 121.237 95.8099 121.586 96.1797C121.935 96.5443 122.109 97.1068 122.109 97.8672V102.586C122.109 102.878 121.833 103.023 121.281 103.023H120.898C120.336 103.023 120.055 102.878 120.055 102.586V98.1797C120.055 97.6068 119.758 97.3203 119.164 97.3203C118.914 97.3203 118.693 97.4036 118.5 97.5703C118.312 97.7318 118.167 97.9167 118.062 98.125V102.586C118.062 102.878 117.784 103.023 117.227 103.023H116.844ZM126.906 103.117C125.807 103.117 124.969 102.794 124.391 102.148C123.818 101.503 123.531 100.573 123.531 99.3594C123.531 98.151 123.818 97.2266 124.391 96.5859C124.969 95.9453 125.807 95.625 126.906 95.625C128.005 95.625 128.839 95.9453 129.406 96.5859C129.979 97.2214 130.266 98.1458 130.266 99.3594C130.266 100.573 129.979 101.503 129.406 102.148C128.839 102.794 128.005 103.117 126.906 103.117ZM126.906 101.484C127.344 101.484 127.664 101.307 127.867 100.953C128.076 100.599 128.18 100.068 128.18 99.3594C128.18 98.6562 128.076 98.1276 127.867 97.7734C127.664 97.4193 127.344 97.2422 126.906 97.2422C126.042 97.2422 125.609 97.9479 125.609 99.3594C125.609 100.062 125.714 100.594 125.922 100.953C126.135 101.307 126.464 101.484 126.906 101.484ZM133.586 103.117C133.227 103.117 132.87 103.078 132.516 103C132.161 102.922 131.867 102.81 131.633 102.664C131.404 102.518 131.289 102.352 131.289 102.164C131.289 102.049 131.331 101.906 131.414 101.734C131.497 101.562 131.596 101.414 131.711 101.289C131.831 101.159 131.935 101.094 132.023 101.094C132.07 101.094 132.172 101.13 132.328 101.203C132.51 101.286 132.685 101.354 132.852 101.406C133.018 101.458 133.208 101.484 133.422 101.484C133.688 101.484 133.888 101.435 134.023 101.336C134.159 101.237 134.227 101.091 134.227 100.898C134.227 100.753 134.185 100.633 134.102 100.539C134.023 100.44 133.922 100.359 133.797 100.297C133.672 100.234 133.495 100.159 133.266 100.07L133.039 99.9844C132.742 99.8698 132.482 99.7396 132.258 99.5938C132.034 99.4479 131.844 99.237 131.688 98.9609C131.531 98.6797 131.453 98.3255 131.453 97.8984C131.453 97.4245 131.555 97.0182 131.758 96.6797C131.966 96.3359 132.26 96.0755 132.641 95.8984C133.021 95.7161 133.469 95.625 133.984 95.625C134.281 95.625 134.591 95.6536 134.914 95.7109C135.237 95.7682 135.508 95.8568 135.727 95.9766C135.951 96.0964 136.062 96.2474 136.062 96.4297C136.062 96.5339 136.029 96.6745 135.961 96.8516C135.898 97.0286 135.82 97.1849 135.727 97.3203C135.633 97.4557 135.544 97.5234 135.461 97.5234C135.435 97.5234 135.362 97.5 135.242 97.4531C135.081 97.3854 134.924 97.3333 134.773 97.2969C134.628 97.2552 134.458 97.2344 134.266 97.2344C133.776 97.2344 133.531 97.3958 133.531 97.7188C133.531 97.8646 133.576 97.9896 133.664 98.0938C133.758 98.1979 133.872 98.2839 134.008 98.3516C134.143 98.4193 134.333 98.5 134.578 98.5938C134.859 98.7083 135.034 98.7812 135.102 98.8125C135.466 98.9948 135.758 99.237 135.977 99.5391C136.201 99.8359 136.312 100.234 136.312 100.734C136.312 101.208 136.206 101.625 135.992 101.984C135.779 102.344 135.466 102.622 135.055 102.82C134.643 103.018 134.154 103.117 133.586 103.117ZM139.688 103.117C139.026 103.117 138.521 102.932 138.172 102.562C137.828 102.188 137.656 101.62 137.656 100.859V97.3594H137.438C137.292 97.3594 137.185 97.3047 137.117 97.1953C137.055 97.0859 137.023 96.9089 137.023 96.6641V96.4297C137.023 96.1849 137.055 96.0078 137.117 95.8984C137.185 95.7891 137.292 95.7344 137.438 95.7344H137.656L137.836 94.4141C137.878 94.1224 138.128 93.9766 138.586 93.9766H139.023C139.263 93.9766 139.438 94.013 139.547 94.0859C139.661 94.1589 139.719 94.2682 139.719 94.4141V95.7344H140.398C140.544 95.7344 140.648 95.7891 140.711 95.8984C140.779 96.0078 140.812 96.1849 140.812 96.4297V96.6641C140.812 96.9089 140.779 97.0859 140.711 97.1953C140.648 97.3047 140.544 97.3594 140.398 97.3594H139.719V100.883C139.719 101.096 139.755 101.25 139.828 101.344C139.906 101.438 140.034 101.484 140.211 101.484C140.263 101.484 140.333 101.477 140.422 101.461C140.51 101.44 140.565 101.43 140.586 101.43C140.669 101.43 140.742 101.5 140.805 101.641C140.872 101.776 140.924 101.927 140.961 102.094C141.003 102.26 141.023 102.372 141.023 102.43C141.023 102.888 140.578 103.117 139.688 103.117ZM145.562 103.117C144.344 103.117 143.435 102.792 142.836 102.141C142.237 101.484 141.938 100.576 141.938 99.4141C141.938 98.1068 142.237 97.1484 142.836 96.5391C143.435 95.9297 144.26 95.625 145.312 95.625C146.01 95.625 146.581 95.7839 147.023 96.1016C147.471 96.4193 147.797 96.8464 148 97.3828C148.208 97.9193 148.312 98.526 148.312 99.2031C148.312 99.2812 148.266 99.3854 148.172 99.5156C148.083 99.6458 147.982 99.763 147.867 99.8672C147.753 99.9714 147.664 100.023 147.602 100.023H144.062C144.109 100.555 144.266 100.932 144.531 101.156C144.802 101.375 145.177 101.484 145.656 101.484C145.917 101.484 146.151 101.456 146.359 101.398C146.573 101.336 146.799 101.255 147.039 101.156C147.185 101.089 147.284 101.055 147.336 101.055C147.43 101.055 147.531 101.122 147.641 101.258C147.755 101.388 147.852 101.539 147.93 101.711C148.013 101.883 148.055 102.016 148.055 102.109C148.055 102.323 147.909 102.505 147.617 102.656C147.331 102.807 146.99 102.922 146.594 103C146.203 103.078 145.859 103.117 145.562 103.117ZM146.312 98.6562C146.312 98.2292 146.229 97.888 146.062 97.6328C145.896 97.3724 145.646 97.2422 145.312 97.2422C144.625 97.2422 144.208 97.7135 144.062 98.6562H146.312ZM152.039 103.117C151.534 103.117 151.083 102.971 150.688 102.68C150.297 102.383 149.99 101.953 149.766 101.391C149.547 100.823 149.438 100.146 149.438 99.3594C149.438 98.6042 149.552 97.9453 149.781 97.3828C150.01 96.8203 150.344 96.388 150.781 96.0859C151.224 95.7786 151.753 95.625 152.367 95.625C152.919 95.625 153.391 95.7682 153.781 96.0547V92.9766C153.781 92.6745 154.06 92.5234 154.617 92.5234H155.008C155.294 92.5234 155.503 92.5625 155.633 92.6406C155.768 92.7135 155.836 92.8255 155.836 92.9766V100.547C155.836 100.979 155.846 101.315 155.867 101.555C155.893 101.794 155.927 102.031 155.969 102.266C155.995 102.406 156.008 102.505 156.008 102.562C156.008 102.667 155.909 102.753 155.711 102.82C155.518 102.888 155.297 102.938 155.047 102.969C154.802 103 154.604 103.016 154.453 103.016C154.292 103.016 154.177 102.953 154.109 102.828C154.047 102.703 153.99 102.521 153.938 102.281L153.891 102.07C153.724 102.378 153.477 102.63 153.148 102.828C152.82 103.021 152.451 103.117 152.039 103.117ZM152.648 101.43C153.086 101.43 153.464 101.156 153.781 100.609V97.5078C153.453 97.3307 153.13 97.2422 152.812 97.2422C151.948 97.2422 151.516 97.9479 151.516 99.3594C151.516 100.74 151.893 101.43 152.648 101.43ZM164.016 103.117C162.917 103.117 162.078 102.794 161.5 102.148C160.927 101.503 160.641 100.573 160.641 99.3594C160.641 98.151 160.927 97.2266 161.5 96.5859C162.078 95.9453 162.917 95.625 164.016 95.625C165.115 95.625 165.948 95.9453 166.516 96.5859C167.089 97.2214 167.375 98.1458 167.375 99.3594C167.375 100.573 167.089 101.503 166.516 102.148C165.948 102.794 165.115 103.117 164.016 103.117ZM164.016 101.484C164.453 101.484 164.773 101.307 164.977 100.953C165.185 100.599 165.289 100.068 165.289 99.3594C165.289 98.6562 165.185 98.1276 164.977 97.7734C164.773 97.4193 164.453 97.2422 164.016 97.2422C163.151 97.2422 162.719 97.9479 162.719 99.3594C162.719 100.062 162.823 100.594 163.031 100.953C163.245 101.307 163.573 101.484 164.016 101.484ZM169.656 103.023C169.104 103.023 168.828 102.878 168.828 102.586V98.1797C168.828 97.513 168.784 96.9583 168.695 96.5156C168.669 96.375 168.656 96.276 168.656 96.2188C168.656 96.1146 168.753 96.0312 168.945 95.9688C169.143 95.901 169.365 95.8516 169.609 95.8203C169.859 95.7891 170.06 95.7734 170.211 95.7734C170.372 95.7734 170.484 95.8333 170.547 95.9531C170.615 96.0729 170.674 96.2474 170.727 96.4766L170.773 96.6797C170.992 96.388 171.284 96.1406 171.648 95.9375C172.018 95.7292 172.414 95.625 172.836 95.625C173.534 95.625 174.049 95.8073 174.383 96.1719C174.716 96.5365 174.883 97.1016 174.883 97.8672V102.586C174.883 102.878 174.602 103.023 174.039 103.023H173.656C173.104 103.023 172.828 102.878 172.828 102.586V98.1797C172.828 97.8984 172.76 97.6849 172.625 97.5391C172.495 97.3932 172.281 97.3203 171.984 97.3203C171.734 97.3203 171.513 97.4036 171.32 97.5703C171.128 97.737 170.982 97.9219 170.883 98.125V102.586C170.883 102.878 170.602 103.023 170.039 103.023H169.656ZM184.234 103.117C182.672 103.117 181.518 102.711 180.773 101.898C180.034 101.086 179.664 99.8229 179.664 98.1094C179.664 94.8125 181.211 93.1641 184.305 93.1641C184.727 93.1641 185.169 93.2057 185.633 93.2891C186.102 93.3724 186.492 93.4896 186.805 93.6406C187.117 93.7865 187.273 93.9505 187.273 94.1328C187.273 94.263 187.221 94.4349 187.117 94.6484C187.013 94.8568 186.891 95.0417 186.75 95.2031C186.609 95.3646 186.484 95.4453 186.375 95.4453C186.344 95.4453 186.268 95.4193 186.148 95.3672C185.888 95.263 185.615 95.1771 185.328 95.1094C185.042 95.0365 184.688 95 184.266 95C183.448 95 182.841 95.2604 182.445 95.7812C182.055 96.2969 181.859 97.0781 181.859 98.125C181.859 99.1719 182.057 99.9609 182.453 100.492C182.849 101.023 183.443 101.289 184.234 101.289C184.635 101.289 184.997 101.255 185.32 101.188V99.4297H184.094C183.948 99.4297 183.841 99.375 183.773 99.2656C183.711 99.1562 183.68 98.9792 183.68 98.7344V98.2891C183.68 98.0495 183.711 97.875 183.773 97.7656C183.841 97.6562 183.948 97.6016 184.094 97.6016H186.914C187.112 97.6016 187.255 97.6458 187.344 97.7344C187.432 97.8177 187.477 97.9557 187.477 98.1484V102.016C187.477 102.432 187.128 102.721 186.43 102.883C185.732 103.039 185 103.117 184.234 103.117ZM190.039 94.5391C189.747 94.5391 189.534 94.5026 189.398 94.4297C189.268 94.3568 189.203 94.2448 189.203 94.0938V92.9766C189.203 92.8255 189.271 92.7135 189.406 92.6406C189.542 92.5625 189.753 92.5234 190.039 92.5234H190.422C190.708 92.5234 190.919 92.5625 191.055 92.6406C191.19 92.7135 191.258 92.8255 191.258 92.9766V94.0938C191.258 94.2448 191.19 94.3568 191.055 94.4297C190.924 94.5026 190.714 94.5391 190.422 94.5391H190.039ZM190.039 103.023C189.482 103.023 189.203 102.878 189.203 102.586V96.1484C189.203 96.0026 189.271 95.8932 189.406 95.8203C189.542 95.7474 189.753 95.7109 190.039 95.7109H190.422C190.708 95.7109 190.919 95.7474 191.055 95.8203C191.19 95.8932 191.258 96.0026 191.258 96.1484V102.586C191.258 102.878 190.979 103.023 190.422 103.023H190.039ZM195.172 103.117C194.51 103.117 194.005 102.932 193.656 102.562C193.312 102.188 193.141 101.62 193.141 100.859V97.3594H192.922C192.776 97.3594 192.669 97.3047 192.602 97.1953C192.539 97.0859 192.508 96.9089 192.508 96.6641V96.4297C192.508 96.1849 192.539 96.0078 192.602 95.8984C192.669 95.7891 192.776 95.7344 192.922 95.7344H193.141L193.32 94.4141C193.362 94.1224 193.612 93.9766 194.07 93.9766H194.508C194.747 93.9766 194.922 94.013 195.031 94.0859C195.146 94.1589 195.203 94.2682 195.203 94.4141V95.7344H195.883C196.029 95.7344 196.133 95.7891 196.195 95.8984C196.263 96.0078 196.297 96.1849 196.297 96.4297V96.6641C196.297 96.9089 196.263 97.0859 196.195 97.1953C196.133 97.3047 196.029 97.3594 195.883 97.3594H195.203V100.883C195.203 101.096 195.24 101.25 195.312 101.344C195.391 101.438 195.518 101.484 195.695 101.484C195.747 101.484 195.818 101.477 195.906 101.461C195.995 101.44 196.049 101.43 196.07 101.43C196.154 101.43 196.227 101.5 196.289 101.641C196.357 101.776 196.409 101.927 196.445 102.094C196.487 102.26 196.508 102.372 196.508 102.43C196.508 102.888 196.062 103.117 195.172 103.117ZM198.836 103.023C198.284 103.023 198.008 102.878 198.008 102.586V93.6953C198.008 93.5443 198.073 93.4323 198.203 93.3594C198.339 93.2812 198.549 93.2422 198.836 93.2422H199.328C199.615 93.2422 199.823 93.2812 199.953 93.3594C200.089 93.4323 200.156 93.5443 200.156 93.6953V97.125H203.906V93.6953C203.906 93.5443 203.974 93.4323 204.109 93.3594C204.245 93.2812 204.456 93.2422 204.742 93.2422H205.227C205.784 93.2422 206.062 93.3932 206.062 93.6953V102.586C206.062 102.878 205.784 103.023 205.227 103.023H204.742C204.185 103.023 203.906 102.878 203.906 102.586V98.9609H200.156V102.586C200.156 102.878 199.88 103.023 199.328 103.023H198.836ZM209.891 103.117C209.193 103.117 208.677 102.935 208.344 102.57C208.01 102.201 207.844 101.63 207.844 100.859V96.1484C207.844 96.0026 207.911 95.8932 208.047 95.8203C208.182 95.7474 208.393 95.7109 208.68 95.7109H209.062C209.349 95.7109 209.56 95.7474 209.695 95.8203C209.831 95.8932 209.898 96.0026 209.898 96.1484V100.547C209.898 100.833 209.964 101.049 210.094 101.195C210.224 101.341 210.438 101.414 210.734 101.414C210.99 101.414 211.211 101.333 211.398 101.172C211.591 101.005 211.74 100.818 211.844 100.609V96.1484C211.844 96.0026 211.911 95.8932 212.047 95.8203C212.182 95.7474 212.393 95.7109 212.68 95.7109H213.062C213.349 95.7109 213.56 95.7474 213.695 95.8203C213.831 95.8932 213.898 96.0026 213.898 96.1484V100.547C213.898 100.984 213.909 101.328 213.93 101.578C213.956 101.823 213.987 102.052 214.023 102.266C214.049 102.406 214.062 102.505 214.062 102.562C214.062 102.667 213.966 102.753 213.773 102.82C213.581 102.888 213.359 102.938 213.109 102.969C212.865 103 212.667 103.016 212.516 103.016C212.349 103.016 212.229 102.951 212.156 102.82C212.089 102.685 212.034 102.495 211.992 102.25L211.953 102.055C211.734 102.352 211.44 102.604 211.07 102.812C210.706 103.016 210.312 103.117 209.891 103.117ZM219.477 103.117C219.065 103.117 218.695 103.021 218.367 102.828C218.039 102.63 217.792 102.378 217.625 102.07L217.586 102.234C217.539 102.438 217.503 102.581 217.477 102.664C217.44 102.81 217.359 102.906 217.234 102.953C217.109 103 216.924 103.023 216.68 103.023H216.516C215.958 103.023 215.68 102.878 215.68 102.586V92.9766C215.68 92.8255 215.747 92.7135 215.883 92.6406C216.018 92.5625 216.229 92.5234 216.516 92.5234H216.898C217.456 92.5234 217.734 92.6745 217.734 92.9766V96.0547C218.125 95.7682 218.596 95.625 219.148 95.625C219.763 95.625 220.289 95.7786 220.727 96.0859C221.169 96.388 221.505 96.8203 221.734 97.3828C221.964 97.9453 222.078 98.6042 222.078 99.3594C222.078 100.146 221.966 100.823 221.742 101.391C221.523 101.953 221.216 102.383 220.82 102.68C220.43 102.971 219.982 103.117 219.477 103.117ZM218.875 101.43C219.62 101.43 219.992 100.74 219.992 99.3594C219.992 97.9479 219.562 97.2422 218.703 97.2422C218.385 97.2422 218.062 97.3307 217.734 97.5078V100.609C218.052 101.156 218.432 101.43 218.875 101.43ZM224.68 99.9219C224.409 99.9219 224.221 99.8854 224.117 99.8125C224.018 99.7396 223.969 99.625 223.969 99.4688V93.6953C223.969 93.5443 224.036 93.4323 224.172 93.3594C224.307 93.2812 224.518 93.2422 224.805 93.2422H225.398C225.669 93.2422 225.875 93.2786 226.016 93.3516C226.161 93.4193 226.234 93.5156 226.234 93.6406L225.961 95.9453C225.914 96.3516 225.854 96.849 225.781 97.4375C225.714 98.0208 225.633 98.6979 225.539 99.4688C225.518 99.6302 225.461 99.7474 225.367 99.8203C225.279 99.888 225.102 99.9219 224.836 99.9219H224.68ZM224.531 103.023C223.969 103.023 223.688 102.878 223.688 102.586V101.305C223.688 101.008 223.969 100.859 224.531 100.859H224.969C225.526 100.859 225.805 101.008 225.805 101.305V102.586C225.805 102.878 225.526 103.023 224.969 103.023H224.531Z" fill="white"/>
</mask>
<g mask="url(#mask0_150_408)">
<rect width="250" height="357.143" fill="url(#paint0_linear_150_408)"/>
</g>
<defs>
<linearGradient id="paint0_linear_150_408" x1="-3.22047e-06" y1="179" x2="250" y2="179" gradientUnits="userSpaceOnUse">
<stop stop-color="#FFD15B"/>
<stop offset="1" stop-color="#E74B36"/>
</linearGradient>
<clipPath id="clip0_150_408">
<rect width="204.8" height="204.8" fill="white" transform="translate(23 126)"/>
</clipPath>
</defs>
</svg>
