<svg width="250" height="358" viewBox="0 0 250 358" fill="none" xmlns="http://www.w3.org/2000/svg">
<mask id="mask0_150_428" style="mask-type:alpha" maskUnits="userSpaceOnUse" x="0" y="0" width="250" height="358">
<rect x="2.5" y="2.5" width="245" height="352.143" rx="2.5" stroke="white" stroke-width="5"/>
<path d="M80.9278 138.253C61.099 173.316 49.5729 206.363 50.7013 224.983C51.8298 244.65 67.3864 271.411 93.0991 298.091C102.127 307.52 124.13 327.752 125.341 327.752C126.307 327.752 146.298 309.375 155.567 300.024C181.118 274.07 196.433 249.002 199.659 228.045C202.802 207.168 191.598 174.201 167.095 132.449L163.95 127.048L151.375 144.62L138.882 162.192H125.503L112.123 162.112L103.499 150.02C98.6635 143.33 93.1011 135.512 90.9241 132.528L87.1353 127.21L80.9278 138.253ZM81.8146 203.299C86.6499 205.636 89.6338 207.975 95.6795 214.02C108.013 226.433 113.735 237.638 113.169 248.519C112.928 253.678 112.606 254.644 110.671 256.58C108.656 258.675 107.931 258.837 102.207 258.837C96.9677 258.837 95.1942 258.433 90.7602 256.338C79.7973 251.099 70.2065 241.83 63.8393 230.222C56.745 217.244 56.9068 204.509 64.2427 200.561C67.6281 198.785 74.8821 199.914 81.8146 203.299ZM190.146 202.816C192.482 205.396 192.482 205.556 192.161 213.293C191.919 220.871 191.677 221.596 187.971 229.174C184.585 235.944 182.892 238.201 176.283 244.81C167.577 253.434 159.759 258.11 152.262 258.996C140.817 260.285 136.142 254.966 138.237 243.116C141.944 222.563 166.852 198.703 183.375 199.832C187.164 200.076 188.13 200.559 190.146 202.816Z" fill="black"/>
<path d="M74.5435 57.0586C73.1503 57.0586 72.4537 56.694 72.4537 55.9648V34.0703C72.4537 33.5885 72.5644 33.2435 72.7857 33.0352C73.0071 32.8138 73.3586 32.7031 73.8404 32.7031H85.442C85.8065 32.7031 86.067 32.8398 86.2232 33.1133C86.3925 33.3867 86.4771 33.8294 86.4771 34.4414V35.4961C86.4771 36.1081 86.3925 36.5508 86.2232 36.8242C86.067 37.0977 85.8065 37.2344 85.442 37.2344H77.8052V42.3125H85.1881C85.5526 42.3125 85.8196 42.4492 85.9888 42.7227C86.1581 42.9961 86.2427 43.4323 86.2427 44.0312V45.1055C86.2427 45.7174 86.1581 46.1667 85.9888 46.4531C85.8196 46.7266 85.5526 46.8633 85.1881 46.8633H77.8052V55.9648C77.8052 56.694 77.1086 57.0586 75.7154 57.0586H74.5435ZM97.4146 57.293C94.6672 57.293 92.5709 56.4857 91.1256 54.8711C89.6933 53.2565 88.9771 50.9323 88.9771 47.8984C88.9771 44.8776 89.6933 42.5664 91.1256 40.9648C92.5709 39.3633 94.6672 38.5625 97.4146 38.5625C100.162 38.5625 102.245 39.3633 103.665 40.9648C105.097 42.5534 105.813 44.8646 105.813 47.8984C105.813 50.9323 105.097 53.2565 103.665 54.8711C102.245 56.4857 100.162 57.293 97.4146 57.293ZM97.4146 53.2109C98.5084 53.2109 99.3092 52.7682 99.817 51.8828C100.338 50.9974 100.598 49.6693 100.598 47.8984C100.598 46.1406 100.338 44.819 99.817 43.9336C99.3092 43.0482 98.5084 42.6055 97.4146 42.6055C95.2532 42.6055 94.1724 44.3698 94.1724 47.8984C94.1724 49.6562 94.4328 50.9844 94.9537 51.8828C95.4875 52.7682 96.3078 53.2109 97.4146 53.2109ZM117.18 57.293C114.433 57.293 112.336 56.4857 110.891 54.8711C109.459 53.2565 108.743 50.9323 108.743 47.8984C108.743 44.8776 109.459 42.5664 110.891 40.9648C112.336 39.3633 114.433 38.5625 117.18 38.5625C119.928 38.5625 122.011 39.3633 123.43 40.9648C124.863 42.5534 125.579 44.8646 125.579 47.8984C125.579 50.9323 124.863 53.2565 123.43 54.8711C122.011 56.4857 119.928 57.293 117.18 57.293ZM117.18 53.2109C118.274 53.2109 119.075 52.7682 119.583 51.8828C120.103 50.9974 120.364 49.6693 120.364 47.8984C120.364 46.1406 120.103 44.819 119.583 43.9336C119.075 43.0482 118.274 42.6055 117.18 42.6055C115.019 42.6055 113.938 44.3698 113.938 47.8984C113.938 49.6562 114.198 50.9844 114.719 51.8828C115.253 52.7682 116.073 53.2109 117.18 53.2109ZM130.833 57C130.351 57 129.999 56.8893 129.778 56.668C129.557 56.4466 129.446 56.0951 129.446 55.6133V34.0703C129.446 33.5885 129.557 33.2435 129.778 33.0352C129.999 32.8138 130.351 32.7031 130.833 32.7031H137.708C140.52 32.7031 142.59 33.25 143.919 34.3438C145.247 35.4245 145.911 36.9219 145.911 38.8359C145.911 39.9818 145.553 41.0365 144.836 42C144.12 42.9635 143.222 43.6667 142.141 44.1094L142.18 44.2461C143.092 44.4284 143.899 44.7995 144.602 45.3594C145.318 45.9193 145.872 46.6029 146.262 47.4102C146.666 48.2174 146.868 49.0638 146.868 49.9492C146.868 52.2279 146.145 53.9727 144.7 55.1836C143.254 56.3945 141.086 57 138.196 57H130.833ZM137.18 42.3711C138.196 42.3711 138.984 42.1302 139.544 41.6484C140.116 41.1536 140.403 40.5286 140.403 39.7734C140.403 38.0547 139.348 37.1953 137.239 37.1953H134.797V42.3711H137.18ZM138.196 52.4492C139.198 52.4492 139.98 52.2083 140.54 51.7266C141.1 51.2318 141.379 50.5352 141.379 49.6367C141.379 48.7513 141.054 48.0807 140.403 47.625C139.765 47.1693 138.84 46.9414 137.629 46.9414H134.797V52.4492H138.196ZM154.231 57.293C152.46 57.293 151.158 56.8307 150.325 55.9062C149.504 54.9688 149.094 53.7318 149.094 52.1953C149.094 51.0365 149.335 49.9948 149.817 49.0703C150.299 48.1328 151.275 47.3451 152.747 46.707C154.218 46.069 156.321 45.75 159.055 45.75V44.5977C159.055 43.9206 158.84 43.4193 158.411 43.0938C157.981 42.7682 157.297 42.6055 156.36 42.6055C155.579 42.6055 154.908 42.6901 154.348 42.8594C153.788 43.0156 153.183 43.2305 152.532 43.5039C152.193 43.6602 151.985 43.7383 151.907 43.7383C151.672 43.7383 151.412 43.5625 151.126 43.2109C150.852 42.8594 150.611 42.4557 150.403 42C150.195 41.5443 150.09 41.1992 150.09 40.9648C150.09 40.5612 150.377 40.1771 150.95 39.8125C151.536 39.4349 152.336 39.1354 153.352 38.9141C154.368 38.6797 155.494 38.5625 156.731 38.5625C159.335 38.5625 161.23 39.0833 162.415 40.125C163.6 41.1536 164.192 42.5664 164.192 44.3633V50.8672C164.192 51.9479 164.218 52.7878 164.27 53.3867C164.335 53.9857 164.42 54.5781 164.524 55.1641C164.589 55.5156 164.622 55.763 164.622 55.9062C164.622 56.1667 164.374 56.3815 163.879 56.5508C163.398 56.7201 162.844 56.8438 162.219 56.9219C161.594 57 161.093 57.0391 160.715 57.0391C160.312 57.0391 160.019 56.8698 159.836 56.5312C159.667 56.1797 159.531 55.7044 159.426 55.1055C159.413 55.0273 159.4 54.9492 159.387 54.8711C159.374 54.793 159.355 54.7148 159.329 54.6367C159.198 54.8841 158.919 55.2161 158.489 55.6328C158.072 56.0495 157.499 56.4336 156.77 56.7852C156.041 57.1237 155.195 57.293 154.231 57.293ZM155.93 53.2109C156.581 53.2109 157.193 53.0091 157.766 52.6055C158.339 52.1888 158.769 51.6615 159.055 51.0234V49.1094C155.813 49.1094 154.192 49.9622 154.192 51.668C154.192 52.1237 154.342 52.4948 154.641 52.7812C154.954 53.0677 155.383 53.2109 155.93 53.2109ZM170.813 57.0586C169.433 57.0586 168.743 56.694 168.743 55.9648V44.9492C168.743 43.2826 168.632 41.8958 168.411 40.7891C168.346 40.4375 168.313 40.1901 168.313 40.0469C168.313 39.7865 168.554 39.5781 169.036 39.4219C169.531 39.2526 170.084 39.1289 170.696 39.0508C171.321 38.9727 171.822 38.9336 172.2 38.9336C172.603 38.9336 172.883 39.0833 173.04 39.3828C173.209 39.6823 173.359 40.1185 173.489 40.6914L173.606 41.1992C174.049 40.3919 174.557 39.7539 175.129 39.2852C175.715 38.8034 176.464 38.5625 177.376 38.5625C178.131 38.5625 178.652 38.7578 178.938 39.1484C179.225 39.526 179.368 39.9557 179.368 40.4375C179.368 40.6979 179.322 41.069 179.231 41.5508C179.14 42.0195 179.01 42.4362 178.84 42.8008C178.671 43.1654 178.482 43.3477 178.274 43.3477C178.131 43.3477 177.916 43.3086 177.629 43.2305C177.239 43.1263 176.907 43.0742 176.633 43.0742C175.995 43.0742 175.435 43.2565 174.954 43.6211C174.485 43.9727 174.127 44.3698 173.879 44.8125V55.9648C173.879 56.694 173.176 57.0586 171.77 57.0586H170.813Z" fill="white"/>
<path d="M39.1094 87.0391C38.8281 87.0391 38.6172 87 38.4766 86.9219C38.3411 86.8438 38.2734 86.7318 38.2734 86.5859V77.6953C38.2734 77.388 38.5521 77.2344 39.1094 77.2344H39.5938C39.8802 77.2344 40.0885 77.2734 40.2188 77.3516C40.3542 77.4297 40.4219 77.5443 40.4219 77.6953V86.5859C40.4219 86.888 40.1458 87.0391 39.5938 87.0391H39.1094ZM47.3047 87.1172C46.5964 87.1172 46.0755 86.9323 45.7422 86.5625C45.4141 86.1875 45.25 85.6927 45.25 85.0781C45.25 84.6146 45.3464 84.1979 45.5391 83.8281C45.7318 83.4531 46.1224 83.138 46.7109 82.8828C47.2995 82.6276 48.1406 82.5 49.2344 82.5V82.0391C49.2344 81.7682 49.1484 81.5677 48.9766 81.4375C48.8047 81.3073 48.5312 81.2422 48.1562 81.2422C47.8438 81.2422 47.5755 81.276 47.3516 81.3438C47.1276 81.4062 46.8854 81.4922 46.625 81.6016C46.4896 81.6641 46.4062 81.6953 46.375 81.6953C46.2812 81.6953 46.1771 81.625 46.0625 81.4844C45.9531 81.3438 45.8568 81.1823 45.7734 81C45.6901 80.8177 45.6484 80.6797 45.6484 80.5859C45.6484 80.4245 45.763 80.2708 45.9922 80.125C46.2266 79.974 46.5469 79.8542 46.9531 79.7656C47.3594 79.6719 47.8099 79.625 48.3047 79.625C49.3464 79.625 50.1042 79.8333 50.5781 80.25C51.0521 80.6615 51.2891 81.2266 51.2891 81.9453V84.5469C51.2891 84.9792 51.2995 85.3151 51.3203 85.5547C51.3464 85.7943 51.3802 86.0312 51.4219 86.2656C51.4479 86.4062 51.4609 86.5052 51.4609 86.5625C51.4609 86.6667 51.362 86.7526 51.1641 86.8203C50.9714 86.888 50.75 86.9375 50.5 86.9688C50.25 87 50.0495 87.0156 49.8984 87.0156C49.737 87.0156 49.6198 86.9479 49.5469 86.8125C49.4792 86.6719 49.4245 86.4818 49.3828 86.2422C49.3776 86.2109 49.3724 86.1797 49.3672 86.1484C49.362 86.1172 49.3542 86.0859 49.3438 86.0547C49.2917 86.1536 49.1797 86.2865 49.0078 86.4531C48.8411 86.6198 48.612 86.7734 48.3203 86.9141C48.0286 87.0495 47.6901 87.1172 47.3047 87.1172ZM47.9844 85.4844C48.2448 85.4844 48.4896 85.4036 48.7188 85.2422C48.9479 85.0755 49.1198 84.8646 49.2344 84.6094V83.8438C47.9375 83.8438 47.2891 84.1849 47.2891 84.8672C47.2891 85.0495 47.349 85.1979 47.4688 85.3125C47.5938 85.4271 47.7656 85.4844 47.9844 85.4844ZM55.3438 87.1172C54.6823 87.1172 54.1771 86.9323 53.8281 86.5625C53.4844 86.1875 53.3125 85.6198 53.3125 84.8594V81.3594H53.0938C52.9479 81.3594 52.8411 81.3047 52.7734 81.1953C52.7109 81.0859 52.6797 80.9089 52.6797 80.6641V80.4297C52.6797 80.1849 52.7109 80.0078 52.7734 79.8984C52.8411 79.7891 52.9479 79.7344 53.0938 79.7344H53.3125L53.4922 78.4141C53.5339 78.1224 53.7839 77.9766 54.2422 77.9766H54.6797C54.9193 77.9766 55.0938 78.013 55.2031 78.0859C55.3177 78.1589 55.375 78.2682 55.375 78.4141V79.7344H56.0547C56.2005 79.7344 56.3047 79.7891 56.3672 79.8984C56.4349 80.0078 56.4688 80.1849 56.4688 80.4297V80.6641C56.4688 80.9089 56.4349 81.0859 56.3672 81.1953C56.3047 81.3047 56.2005 81.3594 56.0547 81.3594H55.375V84.8828C55.375 85.0964 55.4115 85.25 55.4844 85.3438C55.5625 85.4375 55.6901 85.4844 55.8672 85.4844C55.9193 85.4844 55.9896 85.4766 56.0781 85.4609C56.1667 85.4401 56.2214 85.4297 56.2422 85.4297C56.3255 85.4297 56.3984 85.5 56.4609 85.6406C56.5286 85.776 56.5807 85.9271 56.6172 86.0938C56.6589 86.2604 56.6797 86.3724 56.6797 86.4297C56.6797 86.888 56.2344 87.1172 55.3438 87.1172ZM60.1094 87.1172C59.4479 87.1172 58.9427 86.9323 58.5938 86.5625C58.25 86.1875 58.0781 85.6198 58.0781 84.8594V81.3594H57.8594C57.7135 81.3594 57.6068 81.3047 57.5391 81.1953C57.4766 81.0859 57.4453 80.9089 57.4453 80.6641V80.4297C57.4453 80.1849 57.4766 80.0078 57.5391 79.8984C57.6068 79.7891 57.7135 79.7344 57.8594 79.7344H58.0781L58.2578 78.4141C58.2995 78.1224 58.5495 77.9766 59.0078 77.9766H59.4453C59.6849 77.9766 59.8594 78.013 59.9688 78.0859C60.0833 78.1589 60.1406 78.2682 60.1406 78.4141V79.7344H60.8203C60.9661 79.7344 61.0703 79.7891 61.1328 79.8984C61.2005 80.0078 61.2344 80.1849 61.2344 80.4297V80.6641C61.2344 80.9089 61.2005 81.0859 61.1328 81.1953C61.0703 81.3047 60.9661 81.3594 60.8203 81.3594H60.1406V84.8828C60.1406 85.0964 60.1771 85.25 60.25 85.3438C60.3281 85.4375 60.4557 85.4844 60.6328 85.4844C60.6849 85.4844 60.7552 85.4766 60.8438 85.4609C60.9323 85.4401 60.987 85.4297 61.0078 85.4297C61.0911 85.4297 61.1641 85.5 61.2266 85.6406C61.2943 85.776 61.3464 85.9271 61.3828 86.0938C61.4245 86.2604 61.4453 86.3724 61.4453 86.4297C61.4453 86.888 61 87.1172 60.1094 87.1172ZM65.9844 87.1172C64.7656 87.1172 63.8568 86.7917 63.2578 86.1406C62.6589 85.4844 62.3594 84.5755 62.3594 83.4141C62.3594 82.1068 62.6589 81.1484 63.2578 80.5391C63.8568 79.9297 64.6823 79.625 65.7344 79.625C66.4323 79.625 67.0026 79.7839 67.4453 80.1016C67.8932 80.4193 68.2188 80.8464 68.4219 81.3828C68.6302 81.9193 68.7344 82.526 68.7344 83.2031C68.7344 83.2812 68.6875 83.3854 68.5938 83.5156C68.5052 83.6458 68.4036 83.763 68.2891 83.8672C68.1745 83.9714 68.0859 84.0234 68.0234 84.0234H64.4844C64.5312 84.5547 64.6875 84.9323 64.9531 85.1562C65.224 85.375 65.599 85.4844 66.0781 85.4844C66.3385 85.4844 66.5729 85.4557 66.7812 85.3984C66.9948 85.3359 67.2214 85.2552 67.4609 85.1562C67.6068 85.0885 67.7057 85.0547 67.7578 85.0547C67.8516 85.0547 67.9531 85.1224 68.0625 85.2578C68.1771 85.388 68.2734 85.5391 68.3516 85.7109C68.4349 85.8828 68.4766 86.0156 68.4766 86.1094C68.4766 86.3229 68.3307 86.5052 68.0391 86.6562C67.7526 86.8073 67.4115 86.9219 67.0156 87C66.625 87.0781 66.2812 87.1172 65.9844 87.1172ZM66.7344 82.6562C66.7344 82.2292 66.651 81.888 66.4844 81.6328C66.3177 81.3724 66.0677 81.2422 65.7344 81.2422C65.0469 81.2422 64.6302 81.7135 64.4844 82.6562H66.7344ZM78.1094 79.625C78.8021 79.625 79.3125 79.8073 79.6406 80.1719C79.974 80.5365 80.1406 81.1016 80.1406 81.8672V86.5859C80.1406 86.8776 79.8594 87.0234 79.2969 87.0234H78.9141C78.362 87.0234 78.0859 86.8776 78.0859 86.5859V82.1797C78.0859 81.8984 78.0208 81.6849 77.8906 81.5391C77.7656 81.3932 77.5547 81.3203 77.2578 81.3203C76.9974 81.3203 76.776 81.401 76.5938 81.5625C76.4167 81.7188 76.2734 81.901 76.1641 82.1094V86.5859C76.1641 86.8776 75.8854 87.0234 75.3281 87.0234H74.9375C74.3854 87.0234 74.1094 86.8776 74.1094 86.5859V82.1797C74.1094 81.8984 74.0443 81.6849 73.9141 81.5391C73.7891 81.3932 73.5807 81.3203 73.2891 81.3203C73.0391 81.3203 72.8177 81.4036 72.625 81.5703C72.4375 81.737 72.2943 81.9219 72.1953 82.125V86.5859C72.1953 86.8776 71.9141 87.0234 71.3516 87.0234H70.9688C70.4167 87.0234 70.1406 86.8776 70.1406 86.5859V82.1797C70.1406 81.513 70.0964 80.9583 70.0078 80.5156C69.9818 80.375 69.9688 80.276 69.9688 80.2188C69.9688 80.1146 70.0651 80.0312 70.2578 79.9688C70.4557 79.901 70.6771 79.8516 70.9219 79.8203C71.1719 79.7891 71.3724 79.7734 71.5234 79.7734C71.6849 79.7734 71.7969 79.8333 71.8594 79.9531C71.9271 80.0729 71.987 80.2474 72.0391 80.4766L72.0859 80.6797C72.3047 80.3828 72.5964 80.1328 72.9609 79.9297C73.3255 79.7266 73.7188 79.625 74.1406 79.625C74.6198 79.625 75.0078 79.7109 75.3047 79.8828C75.6068 80.0547 75.8281 80.3203 75.9688 80.6797C76.2031 80.3828 76.5104 80.1328 76.8906 79.9297C77.2708 79.7266 77.6771 79.625 78.1094 79.625ZM82.8672 89.8672C82.5807 89.8672 82.3698 89.8281 82.2344 89.75C82.099 89.6771 82.0312 89.5651 82.0312 89.4141V82.1797C82.0312 81.763 82.0182 81.4375 81.9922 81.2031C81.9714 80.9635 81.9427 80.7344 81.9062 80.5156C81.8802 80.375 81.8672 80.276 81.8672 80.2188C81.8672 80.1146 81.9635 80.0312 82.1562 79.9688C82.349 79.901 82.5677 79.8516 82.8125 79.8203C83.0625 79.7891 83.263 79.7734 83.4141 79.7734C83.5807 79.7734 83.6953 79.8359 83.7578 79.9609C83.8255 80.0807 83.8854 80.2552 83.9375 80.4844L83.9766 80.6641C84.138 80.3568 84.3828 80.1068 84.7109 79.9141C85.0443 79.7214 85.4193 79.625 85.8359 79.625C86.3411 79.625 86.7891 79.7708 87.1797 80.0625C87.5703 80.3542 87.875 80.7839 88.0938 81.3516C88.3177 81.9141 88.4297 82.5885 88.4297 83.375C88.4297 84.1302 88.3151 84.7891 88.0859 85.3516C87.8568 85.9141 87.5234 86.349 87.0859 86.6562C86.6484 86.9635 86.1224 87.1172 85.5078 87.1172C84.9818 87.1172 84.5052 86.9714 84.0781 86.6797V89.4141C84.0781 89.5651 84.0104 89.6771 83.875 89.75C83.7448 89.8281 83.5365 89.8672 83.25 89.8672H82.8672ZM85.0547 85.4844C85.9141 85.4844 86.3438 84.7812 86.3438 83.375C86.3438 81.9948 85.9714 81.3047 85.2266 81.3047C84.7891 81.3047 84.4062 81.5781 84.0781 82.125V85.2188C84.401 85.3958 84.7266 85.4844 85.0547 85.4844ZM92.125 87.1172C91.4635 87.1172 90.9583 86.9323 90.6094 86.5625C90.2656 86.1875 90.0938 85.6198 90.0938 84.8594V81.3594H89.875C89.7292 81.3594 89.6224 81.3047 89.5547 81.1953C89.4922 81.0859 89.4609 80.9089 89.4609 80.6641V80.4297C89.4609 80.1849 89.4922 80.0078 89.5547 79.8984C89.6224 79.7891 89.7292 79.7344 89.875 79.7344H90.0938L90.2734 78.4141C90.3151 78.1224 90.5651 77.9766 91.0234 77.9766H91.4609C91.7005 77.9766 91.875 78.013 91.9844 78.0859C92.099 78.1589 92.1562 78.2682 92.1562 78.4141V79.7344H92.8359C92.9818 79.7344 93.0859 79.7891 93.1484 79.8984C93.2161 80.0078 93.25 80.1849 93.25 80.4297V80.6641C93.25 80.9089 93.2161 81.0859 93.1484 81.1953C93.0859 81.3047 92.9818 81.3594 92.8359 81.3594H92.1562V84.8828C92.1562 85.0964 92.1927 85.25 92.2656 85.3438C92.3438 85.4375 92.4714 85.4844 92.6484 85.4844C92.7005 85.4844 92.7708 85.4766 92.8594 85.4609C92.9479 85.4401 93.0026 85.4297 93.0234 85.4297C93.1068 85.4297 93.1797 85.5 93.2422 85.6406C93.3099 85.776 93.362 85.9271 93.3984 86.0938C93.4401 86.2604 93.4609 86.3724 93.4609 86.4297C93.4609 86.888 93.0156 87.1172 92.125 87.1172ZM98 87.1172C96.7812 87.1172 95.8724 86.7917 95.2734 86.1406C94.6745 85.4844 94.375 84.5755 94.375 83.4141C94.375 82.1068 94.6745 81.1484 95.2734 80.5391C95.8724 79.9297 96.6979 79.625 97.75 79.625C98.4479 79.625 99.0182 79.7839 99.4609 80.1016C99.9089 80.4193 100.234 80.8464 100.438 81.3828C100.646 81.9193 100.75 82.526 100.75 83.2031C100.75 83.2812 100.703 83.3854 100.609 83.5156C100.521 83.6458 100.419 83.763 100.305 83.8672C100.19 83.9714 100.102 84.0234 100.039 84.0234H96.5C96.5469 84.5547 96.7031 84.9323 96.9688 85.1562C97.2396 85.375 97.6146 85.4844 98.0938 85.4844C98.3542 85.4844 98.5885 85.4557 98.7969 85.3984C99.0104 85.3359 99.237 85.2552 99.4766 85.1562C99.6224 85.0885 99.7214 85.0547 99.7734 85.0547C99.8672 85.0547 99.9688 85.1224 100.078 85.2578C100.193 85.388 100.289 85.5391 100.367 85.7109C100.451 85.8828 100.492 86.0156 100.492 86.1094C100.492 86.3229 100.346 86.5052 100.055 86.6562C99.7682 86.8073 99.4271 86.9219 99.0312 87C98.6406 87.0781 98.2969 87.1172 98 87.1172ZM98.75 82.6562C98.75 82.2292 98.6667 81.888 98.5 81.6328C98.3333 81.3724 98.0833 81.2422 97.75 81.2422C97.0625 81.2422 96.6458 81.7135 96.5 82.6562H98.75ZM104.477 87.1172C103.971 87.1172 103.521 86.9714 103.125 86.6797C102.734 86.3828 102.427 85.9531 102.203 85.3906C101.984 84.8229 101.875 84.1458 101.875 83.3594C101.875 82.6042 101.99 81.9453 102.219 81.3828C102.448 80.8203 102.781 80.388 103.219 80.0859C103.661 79.7786 104.19 79.625 104.805 79.625C105.357 79.625 105.828 79.7682 106.219 80.0547V76.9766C106.219 76.6745 106.497 76.5234 107.055 76.5234H107.445C107.732 76.5234 107.94 76.5625 108.07 76.6406C108.206 76.7135 108.273 76.8255 108.273 76.9766V84.5469C108.273 84.9792 108.284 85.3151 108.305 85.5547C108.331 85.7943 108.365 86.0312 108.406 86.2656C108.432 86.4062 108.445 86.5052 108.445 86.5625C108.445 86.6667 108.346 86.7526 108.148 86.8203C107.956 86.888 107.734 86.9375 107.484 86.9688C107.24 87 107.042 87.0156 106.891 87.0156C106.729 87.0156 106.615 86.9531 106.547 86.8281C106.484 86.7031 106.427 86.5208 106.375 86.2812L106.328 86.0703C106.161 86.3776 105.914 86.6302 105.586 86.8281C105.258 87.0208 104.888 87.1172 104.477 87.1172ZM105.086 85.4297C105.523 85.4297 105.901 85.1562 106.219 84.6094V81.5078C105.891 81.3307 105.568 81.2422 105.25 81.2422C104.385 81.2422 103.953 81.9479 103.953 83.3594C103.953 84.7396 104.331 85.4297 105.086 85.4297ZM117.688 87.1172C116.125 87.1172 114.971 86.7109 114.227 85.8984C113.487 85.0859 113.117 83.8229 113.117 82.1094C113.117 78.8125 114.664 77.1641 117.758 77.1641C118.18 77.1641 118.622 77.2057 119.086 77.2891C119.555 77.3724 119.945 77.4896 120.258 77.6406C120.57 77.7865 120.727 77.9505 120.727 78.1328C120.727 78.263 120.674 78.4349 120.57 78.6484C120.466 78.8568 120.344 79.0417 120.203 79.2031C120.062 79.3646 119.938 79.4453 119.828 79.4453C119.797 79.4453 119.721 79.4193 119.602 79.3672C119.341 79.263 119.068 79.1771 118.781 79.1094C118.495 79.0365 118.141 79 117.719 79C116.901 79 116.294 79.2604 115.898 79.7812C115.508 80.2969 115.312 81.0781 115.312 82.125C115.312 83.1719 115.51 83.9609 115.906 84.4922C116.302 85.0234 116.896 85.2891 117.688 85.2891C118.089 85.2891 118.451 85.2552 118.773 85.1875V83.4297H117.547C117.401 83.4297 117.294 83.375 117.227 83.2656C117.164 83.1562 117.133 82.9792 117.133 82.7344V82.2891C117.133 82.0495 117.164 81.875 117.227 81.7656C117.294 81.6562 117.401 81.6016 117.547 81.6016H120.367C120.565 81.6016 120.708 81.6458 120.797 81.7344C120.885 81.8177 120.93 81.9557 120.93 82.1484V86.0156C120.93 86.4323 120.581 86.7214 119.883 86.8828C119.185 87.0391 118.453 87.1172 117.688 87.1172ZM125.797 87.1172C124.698 87.1172 123.859 86.7943 123.281 86.1484C122.708 85.5026 122.422 84.5729 122.422 83.3594C122.422 82.151 122.708 81.2266 123.281 80.5859C123.859 79.9453 124.698 79.625 125.797 79.625C126.896 79.625 127.729 79.9453 128.297 80.5859C128.87 81.2214 129.156 82.1458 129.156 83.3594C129.156 84.5729 128.87 85.5026 128.297 86.1484C127.729 86.7943 126.896 87.1172 125.797 87.1172ZM125.797 85.4844C126.234 85.4844 126.555 85.3073 126.758 84.9531C126.966 84.599 127.07 84.0677 127.07 83.3594C127.07 82.6562 126.966 82.1276 126.758 81.7734C126.555 81.4193 126.234 81.2422 125.797 81.2422C124.932 81.2422 124.5 81.9479 124.5 83.3594C124.5 84.0625 124.604 84.5938 124.812 84.9531C125.026 85.3073 125.354 85.4844 125.797 85.4844ZM133.703 87.1172C132.604 87.1172 131.766 86.7943 131.188 86.1484C130.615 85.5026 130.328 84.5729 130.328 83.3594C130.328 82.151 130.615 81.2266 131.188 80.5859C131.766 79.9453 132.604 79.625 133.703 79.625C134.802 79.625 135.635 79.9453 136.203 80.5859C136.776 81.2214 137.062 82.1458 137.062 83.3594C137.062 84.5729 136.776 85.5026 136.203 86.1484C135.635 86.7943 134.802 87.1172 133.703 87.1172ZM133.703 85.4844C134.141 85.4844 134.461 85.3073 134.664 84.9531C134.872 84.599 134.977 84.0677 134.977 83.3594C134.977 82.6562 134.872 82.1276 134.664 81.7734C134.461 81.4193 134.141 81.2422 133.703 81.2422C132.839 81.2422 132.406 81.9479 132.406 83.3594C132.406 84.0625 132.51 84.5938 132.719 84.9531C132.932 85.3073 133.26 85.4844 133.703 85.4844ZM141.289 89.9453C139.086 89.9453 137.984 89.3047 137.984 88.0234C137.984 87.6641 138.091 87.3464 138.305 87.0703C138.523 86.7943 138.839 86.5755 139.25 86.4141L139.258 86.3594C139.07 86.2604 138.924 86.1198 138.82 85.9375C138.716 85.7552 138.664 85.5495 138.664 85.3203C138.664 85.0859 138.734 84.8698 138.875 84.6719C139.021 84.474 139.229 84.3047 139.5 84.1641C139.146 83.9661 138.867 83.6953 138.664 83.3516C138.466 83.0078 138.367 82.5885 138.367 82.0938C138.367 81.25 138.641 80.6276 139.188 80.2266C139.74 79.8255 140.464 79.625 141.359 79.625C141.734 79.625 142.091 79.6615 142.43 79.7344H144.664C144.81 79.7344 144.917 79.7917 144.984 79.9062C145.052 80.0156 145.086 80.1901 145.086 80.4297V80.6641C145.086 81.1016 144.974 81.3203 144.75 81.3203C144.672 81.3203 144.565 81.3151 144.43 81.3047C144.299 81.2943 144.206 81.2812 144.148 81.2656L144.125 81.3203C144.188 81.4036 144.24 81.5208 144.281 81.6719C144.323 81.8177 144.344 81.9583 144.344 82.0938C144.344 82.9219 144.083 83.5391 143.562 83.9453C143.042 84.3464 142.359 84.5469 141.516 84.5469C140.948 84.5469 140.664 84.6745 140.664 84.9297C140.664 85.0443 140.721 85.1354 140.836 85.2031C140.951 85.2656 141.096 85.3151 141.273 85.3516C141.456 85.388 141.714 85.4271 142.047 85.4688C142.286 85.4948 142.51 85.526 142.719 85.5625C143.375 85.6927 143.898 85.9062 144.289 86.2031C144.68 86.4948 144.875 86.9557 144.875 87.5859C144.875 88.0599 144.727 88.474 144.43 88.8281C144.133 89.1823 143.714 89.4557 143.172 89.6484C142.63 89.8464 142.003 89.9453 141.289 89.9453ZM141.359 83.0703C141.667 83.0703 141.917 82.9896 142.109 82.8281C142.307 82.6667 142.406 82.4219 142.406 82.0938C142.406 81.7656 142.307 81.5208 142.109 81.3594C141.917 81.1927 141.667 81.1094 141.359 81.1094C141.052 81.1094 140.799 81.1927 140.602 81.3594C140.409 81.5208 140.312 81.7656 140.312 82.0938C140.312 82.4219 140.409 82.6667 140.602 82.8281C140.799 82.9896 141.052 83.0703 141.359 83.0703ZM141.445 88.3203C141.914 88.3203 142.268 88.2604 142.508 88.1406C142.753 88.0208 142.875 87.8542 142.875 87.6406C142.875 87.4948 142.805 87.3776 142.664 87.2891C142.529 87.2057 142.307 87.1354 142 87.0781C141.698 87.026 141.273 86.9818 140.727 86.9453C140.492 87.0286 140.31 87.138 140.18 87.2734C140.049 87.4089 139.984 87.5495 139.984 87.6953C139.984 87.8932 140.104 88.0469 140.344 88.1562C140.583 88.2656 140.951 88.3203 141.445 88.3203ZM148.148 87.1172C147.487 87.1172 146.982 86.9323 146.633 86.5625C146.289 86.1875 146.117 85.6198 146.117 84.8594V76.9766C146.117 76.6745 146.396 76.5234 146.953 76.5234H147.344C147.63 76.5234 147.839 76.5625 147.969 76.6406C148.104 76.7135 148.172 76.8255 148.172 76.9766V84.8828C148.172 85.0964 148.211 85.25 148.289 85.3438C148.367 85.4375 148.497 85.4844 148.68 85.4844C148.727 85.4844 148.797 85.474 148.891 85.4531C148.917 85.4479 148.943 85.4427 148.969 85.4375C148.995 85.4323 149.023 85.4297 149.055 85.4297C149.133 85.4297 149.203 85.5 149.266 85.6406C149.333 85.776 149.385 85.9297 149.422 86.1016C149.458 86.2682 149.477 86.3776 149.477 86.4297C149.477 86.888 149.034 87.1172 148.148 87.1172ZM153.594 87.1172C152.375 87.1172 151.466 86.7917 150.867 86.1406C150.268 85.4844 149.969 84.5755 149.969 83.4141C149.969 82.1068 150.268 81.1484 150.867 80.5391C151.466 79.9297 152.292 79.625 153.344 79.625C154.042 79.625 154.612 79.7839 155.055 80.1016C155.503 80.4193 155.828 80.8464 156.031 81.3828C156.24 81.9193 156.344 82.526 156.344 83.2031C156.344 83.2812 156.297 83.3854 156.203 83.5156C156.115 83.6458 156.013 83.763 155.898 83.8672C155.784 83.9714 155.695 84.0234 155.633 84.0234H152.094C152.141 84.5547 152.297 84.9323 152.562 85.1562C152.833 85.375 153.208 85.4844 153.688 85.4844C153.948 85.4844 154.182 85.4557 154.391 85.3984C154.604 85.3359 154.831 85.2552 155.07 85.1562C155.216 85.0885 155.315 85.0547 155.367 85.0547C155.461 85.0547 155.562 85.1224 155.672 85.2578C155.786 85.388 155.883 85.5391 155.961 85.7109C156.044 85.8828 156.086 86.0156 156.086 86.1094C156.086 86.3229 155.94 86.5052 155.648 86.6562C155.362 86.8073 155.021 86.9219 154.625 87C154.234 87.0781 153.891 87.1172 153.594 87.1172ZM154.344 82.6562C154.344 82.2292 154.26 81.888 154.094 81.6328C153.927 81.3724 153.677 81.2422 153.344 81.2422C152.656 81.2422 152.24 81.7135 152.094 82.6562H154.344ZM157.773 80.3594C157.622 80.3594 157.479 80.3359 157.344 80.2891C157.214 80.237 157.148 80.1589 157.148 80.0547C157.148 79.9661 157.18 79.8333 157.242 79.6562C157.352 79.3958 157.438 79.1745 157.5 78.9922C157.562 78.8047 157.62 78.5495 157.672 78.2266C157.729 77.9036 157.758 77.526 157.758 77.0938C157.758 76.901 157.826 76.7526 157.961 76.6484C158.102 76.5391 158.312 76.4844 158.594 76.4844H158.859C159.135 76.4844 159.344 76.5417 159.484 76.6562C159.625 76.7656 159.695 76.9115 159.695 77.0938C159.695 77.5833 159.581 78.0833 159.352 78.5938C159.128 79.099 158.859 79.5208 158.547 79.8594C158.24 80.1927 157.982 80.3594 157.773 80.3594ZM162.57 87.1172C162.211 87.1172 161.854 87.0781 161.5 87C161.146 86.9219 160.852 86.8099 160.617 86.6641C160.388 86.5182 160.273 86.3516 160.273 86.1641C160.273 86.0495 160.315 85.9062 160.398 85.7344C160.482 85.5625 160.581 85.4141 160.695 85.2891C160.815 85.1589 160.919 85.0938 161.008 85.0938C161.055 85.0938 161.156 85.1302 161.312 85.2031C161.495 85.2865 161.669 85.3542 161.836 85.4062C162.003 85.4583 162.193 85.4844 162.406 85.4844C162.672 85.4844 162.872 85.4349 163.008 85.3359C163.143 85.237 163.211 85.0911 163.211 84.8984C163.211 84.7526 163.169 84.6328 163.086 84.5391C163.008 84.4401 162.906 84.3594 162.781 84.2969C162.656 84.2344 162.479 84.1589 162.25 84.0703L162.023 83.9844C161.727 83.8698 161.466 83.7396 161.242 83.5938C161.018 83.4479 160.828 83.237 160.672 82.9609C160.516 82.6797 160.438 82.3255 160.438 81.8984C160.438 81.4245 160.539 81.0182 160.742 80.6797C160.951 80.3359 161.245 80.0755 161.625 79.8984C162.005 79.7161 162.453 79.625 162.969 79.625C163.266 79.625 163.576 79.6536 163.898 79.7109C164.221 79.7682 164.492 79.8568 164.711 79.9766C164.935 80.0964 165.047 80.2474 165.047 80.4297C165.047 80.5339 165.013 80.6745 164.945 80.8516C164.883 81.0286 164.805 81.1849 164.711 81.3203C164.617 81.4557 164.529 81.5234 164.445 81.5234C164.419 81.5234 164.346 81.5 164.227 81.4531C164.065 81.3854 163.909 81.3333 163.758 81.2969C163.612 81.2552 163.443 81.2344 163.25 81.2344C162.76 81.2344 162.516 81.3958 162.516 81.7188C162.516 81.8646 162.56 81.9896 162.648 82.0938C162.742 82.1979 162.857 82.2839 162.992 82.3516C163.128 82.4193 163.318 82.5 163.562 82.5938C163.844 82.7083 164.018 82.7812 164.086 82.8125C164.451 82.9948 164.742 83.237 164.961 83.5391C165.185 83.8359 165.297 84.2344 165.297 84.7344C165.297 85.2083 165.19 85.625 164.977 85.9844C164.763 86.3438 164.451 86.6224 164.039 86.8203C163.628 87.0182 163.138 87.1172 162.57 87.1172ZM170.711 87.0234C170.154 87.0234 169.875 86.8776 169.875 86.5859V77.8281C169.875 77.6354 169.919 77.4974 170.008 77.4141C170.096 77.3255 170.237 77.2812 170.43 77.2812H175.07C175.216 77.2812 175.32 77.3359 175.383 77.4453C175.451 77.5547 175.484 77.7318 175.484 77.9766V78.3984C175.484 78.6432 175.451 78.8203 175.383 78.9297C175.32 79.0391 175.216 79.0938 175.07 79.0938H172.016V81.125H174.969C175.115 81.125 175.221 81.1797 175.289 81.2891C175.357 81.3984 175.391 81.5729 175.391 81.8125V82.2422C175.391 82.487 175.357 82.6667 175.289 82.7812C175.221 82.8906 175.115 82.9453 174.969 82.9453H172.016V86.5859C172.016 86.8776 171.737 87.0234 171.18 87.0234H170.711ZM179.859 87.1172C178.76 87.1172 177.922 86.7943 177.344 86.1484C176.771 85.5026 176.484 84.5729 176.484 83.3594C176.484 82.151 176.771 81.2266 177.344 80.5859C177.922 79.9453 178.76 79.625 179.859 79.625C180.958 79.625 181.792 79.9453 182.359 80.5859C182.932 81.2214 183.219 82.1458 183.219 83.3594C183.219 84.5729 182.932 85.5026 182.359 86.1484C181.792 86.7943 180.958 87.1172 179.859 87.1172ZM179.859 85.4844C180.297 85.4844 180.617 85.3073 180.82 84.9531C181.029 84.599 181.133 84.0677 181.133 83.3594C181.133 82.6562 181.029 82.1276 180.82 81.7734C180.617 81.4193 180.297 81.2422 179.859 81.2422C178.995 81.2422 178.562 81.9479 178.562 83.3594C178.562 84.0625 178.667 84.5938 178.875 84.9531C179.089 85.3073 179.417 85.4844 179.859 85.4844ZM187.766 87.1172C186.667 87.1172 185.828 86.7943 185.25 86.1484C184.677 85.5026 184.391 84.5729 184.391 83.3594C184.391 82.151 184.677 81.2266 185.25 80.5859C185.828 79.9453 186.667 79.625 187.766 79.625C188.865 79.625 189.698 79.9453 190.266 80.5859C190.839 81.2214 191.125 82.1458 191.125 83.3594C191.125 84.5729 190.839 85.5026 190.266 86.1484C189.698 86.7943 188.865 87.1172 187.766 87.1172ZM187.766 85.4844C188.203 85.4844 188.523 85.3073 188.727 84.9531C188.935 84.599 189.039 84.0677 189.039 83.3594C189.039 82.6562 188.935 82.1276 188.727 81.7734C188.523 81.4193 188.203 81.2422 187.766 81.2422C186.901 81.2422 186.469 81.9479 186.469 83.3594C186.469 84.0625 186.573 84.5938 186.781 84.9531C186.995 85.3073 187.323 85.4844 187.766 85.4844ZM193.227 87C193.034 87 192.893 86.9557 192.805 86.8672C192.716 86.7786 192.672 86.638 192.672 86.4453V77.8281C192.672 77.6354 192.716 77.4974 192.805 77.4141C192.893 77.3255 193.034 77.2812 193.227 77.2812H195.977C197.102 77.2812 197.93 77.5 198.461 77.9375C198.992 78.3698 199.258 78.9688 199.258 79.7344C199.258 80.1927 199.115 80.6146 198.828 81C198.542 81.3854 198.182 81.6667 197.75 81.8438L197.766 81.8984C198.13 81.9714 198.453 82.1198 198.734 82.3438C199.021 82.5677 199.242 82.8411 199.398 83.1641C199.56 83.487 199.641 83.8255 199.641 84.1797C199.641 85.0911 199.352 85.7891 198.773 86.2734C198.195 86.7578 197.328 87 196.172 87H193.227ZM195.766 81.1484C196.172 81.1484 196.487 81.0521 196.711 80.8594C196.94 80.6615 197.055 80.4115 197.055 80.1094C197.055 79.4219 196.633 79.0781 195.789 79.0781H194.812V81.1484H195.766ZM196.172 85.1797C196.573 85.1797 196.885 85.0833 197.109 84.8906C197.333 84.6927 197.445 84.4141 197.445 84.0547C197.445 83.7005 197.315 83.4323 197.055 83.25C196.799 83.0677 196.43 82.9766 195.945 82.9766H194.812V85.1797H196.172ZM202.586 87.1172C201.878 87.1172 201.357 86.9323 201.023 86.5625C200.695 86.1875 200.531 85.6927 200.531 85.0781C200.531 84.6146 200.628 84.1979 200.82 83.8281C201.013 83.4531 201.404 83.138 201.992 82.8828C202.581 82.6276 203.422 82.5 204.516 82.5V82.0391C204.516 81.7682 204.43 81.5677 204.258 81.4375C204.086 81.3073 203.812 81.2422 203.438 81.2422C203.125 81.2422 202.857 81.276 202.633 81.3438C202.409 81.4062 202.167 81.4922 201.906 81.6016C201.771 81.6641 201.688 81.6953 201.656 81.6953C201.562 81.6953 201.458 81.625 201.344 81.4844C201.234 81.3438 201.138 81.1823 201.055 81C200.971 80.8177 200.93 80.6797 200.93 80.5859C200.93 80.4245 201.044 80.2708 201.273 80.125C201.508 79.974 201.828 79.8542 202.234 79.7656C202.641 79.6719 203.091 79.625 203.586 79.625C204.628 79.625 205.385 79.8333 205.859 80.25C206.333 80.6615 206.57 81.2266 206.57 81.9453V84.5469C206.57 84.9792 206.581 85.3151 206.602 85.5547C206.628 85.7943 206.661 86.0312 206.703 86.2656C206.729 86.4062 206.742 86.5052 206.742 86.5625C206.742 86.6667 206.643 86.7526 206.445 86.8203C206.253 86.888 206.031 86.9375 205.781 86.9688C205.531 87 205.331 87.0156 205.18 87.0156C205.018 87.0156 204.901 86.9479 204.828 86.8125C204.76 86.6719 204.706 86.4818 204.664 86.2422C204.659 86.2109 204.654 86.1797 204.648 86.1484C204.643 86.1172 204.635 86.0859 204.625 86.0547C204.573 86.1536 204.461 86.2865 204.289 86.4531C204.122 86.6198 203.893 86.7734 203.602 86.9141C203.31 87.0495 202.971 87.1172 202.586 87.1172ZM203.266 85.4844C203.526 85.4844 203.771 85.4036 204 85.2422C204.229 85.0755 204.401 84.8646 204.516 84.6094V83.8438C203.219 83.8438 202.57 84.1849 202.57 84.8672C202.57 85.0495 202.63 85.1979 202.75 85.3125C202.875 85.4271 203.047 85.4844 203.266 85.4844ZM209.219 87.0234C208.667 87.0234 208.391 86.8776 208.391 86.5859V82.1797C208.391 81.513 208.346 80.9583 208.258 80.5156C208.232 80.375 208.219 80.276 208.219 80.2188C208.219 80.1146 208.315 80.0312 208.508 79.9688C208.706 79.901 208.927 79.8516 209.172 79.8203C209.422 79.7891 209.622 79.7734 209.773 79.7734C209.935 79.7734 210.047 79.8333 210.109 79.9531C210.177 80.0729 210.237 80.2474 210.289 80.4766L210.336 80.6797C210.513 80.3568 210.716 80.1016 210.945 79.9141C211.18 79.7214 211.479 79.625 211.844 79.625C212.146 79.625 212.354 79.7031 212.469 79.8594C212.583 80.0104 212.641 80.1823 212.641 80.375C212.641 80.4792 212.622 80.6276 212.586 80.8203C212.549 81.0078 212.497 81.1745 212.43 81.3203C212.362 81.4661 212.286 81.5391 212.203 81.5391C212.146 81.5391 212.06 81.5234 211.945 81.4922C211.789 81.4505 211.656 81.4297 211.547 81.4297C211.292 81.4297 211.068 81.5026 210.875 81.6484C210.688 81.7891 210.544 81.9479 210.445 82.125V86.5859C210.445 86.8776 210.164 87.0234 209.602 87.0234H209.219ZM91.4141 114.117C89.8516 114.117 88.6979 113.711 87.9531 112.898C87.2135 112.086 86.8438 110.823 86.8438 109.109C86.8438 105.812 88.3906 104.164 91.4844 104.164C91.9062 104.164 92.3438 104.206 92.7969 104.289C93.25 104.372 93.6276 104.49 93.9297 104.641C94.237 104.786 94.3906 104.951 94.3906 105.133C94.3906 105.263 94.3385 105.435 94.2344 105.648C94.1302 105.857 94.0052 106.042 93.8594 106.203C93.7188 106.365 93.5938 106.445 93.4844 106.445C93.4583 106.445 93.388 106.419 93.2734 106.367C93.0234 106.263 92.7604 106.177 92.4844 106.109C92.2135 106.036 91.8672 106 91.4453 106C90.6276 106 90.0208 106.26 89.625 106.781C89.2344 107.297 89.0391 108.078 89.0391 109.125C89.0391 110.172 89.237 110.961 89.6328 111.492C90.0286 112.023 90.6224 112.289 91.4141 112.289C91.8255 112.289 92.1823 112.247 92.4844 112.164C92.7917 112.081 93.0911 111.974 93.3828 111.844C93.3984 111.839 93.4453 111.82 93.5234 111.789C93.6016 111.753 93.6589 111.734 93.6953 111.734C93.8307 111.734 93.9609 111.815 94.0859 111.977C94.2109 112.133 94.3125 112.312 94.3906 112.516C94.4688 112.714 94.5078 112.857 94.5078 112.945C94.5078 113.201 94.3359 113.417 93.9922 113.594C93.6536 113.771 93.2422 113.904 92.7578 113.992C92.2786 114.076 91.8307 114.117 91.4141 114.117ZM96.5859 114.023C96.0286 114.023 95.75 113.878 95.75 113.586V103.977C95.75 103.826 95.8177 103.714 95.9531 103.641C96.0885 103.562 96.2995 103.523 96.5859 103.523H96.9688C97.526 103.523 97.8047 103.674 97.8047 103.977V107.562C98.0339 107.286 98.3177 107.062 98.6562 106.891C99 106.714 99.3672 106.625 99.7578 106.625C100.456 106.625 100.979 106.81 101.328 107.18C101.677 107.544 101.852 108.107 101.852 108.867V113.586C101.852 113.878 101.576 114.023 101.023 114.023H100.641C100.078 114.023 99.7969 113.878 99.7969 113.586V109.18C99.7969 108.607 99.5 108.32 98.9062 108.32C98.6562 108.32 98.4349 108.404 98.2422 108.57C98.0547 108.732 97.9089 108.917 97.8047 109.125V113.586C97.8047 113.878 97.526 114.023 96.9688 114.023H96.5859ZM106.898 114.117C105.68 114.117 104.771 113.792 104.172 113.141C103.573 112.484 103.273 111.576 103.273 110.414C103.273 109.107 103.573 108.148 104.172 107.539C104.771 106.93 105.596 106.625 106.648 106.625C107.346 106.625 107.917 106.784 108.359 107.102C108.807 107.419 109.133 107.846 109.336 108.383C109.544 108.919 109.648 109.526 109.648 110.203C109.648 110.281 109.602 110.385 109.508 110.516C109.419 110.646 109.318 110.763 109.203 110.867C109.089 110.971 109 111.023 108.938 111.023H105.398C105.445 111.555 105.602 111.932 105.867 112.156C106.138 112.375 106.513 112.484 106.992 112.484C107.253 112.484 107.487 112.456 107.695 112.398C107.909 112.336 108.135 112.255 108.375 112.156C108.521 112.089 108.62 112.055 108.672 112.055C108.766 112.055 108.867 112.122 108.977 112.258C109.091 112.388 109.188 112.539 109.266 112.711C109.349 112.883 109.391 113.016 109.391 113.109C109.391 113.323 109.245 113.505 108.953 113.656C108.667 113.807 108.326 113.922 107.93 114C107.539 114.078 107.195 114.117 106.898 114.117ZM107.648 109.656C107.648 109.229 107.565 108.888 107.398 108.633C107.232 108.372 106.982 108.242 106.648 108.242C105.961 108.242 105.544 108.714 105.398 109.656H107.648ZM114.266 114.117C113.083 114.117 112.206 113.812 111.633 113.203C111.06 112.589 110.773 111.659 110.773 110.414C110.773 109.159 111.062 108.214 111.641 107.578C112.219 106.943 113.12 106.625 114.344 106.625C114.693 106.625 115.044 106.664 115.398 106.742C115.758 106.815 116.055 106.924 116.289 107.07C116.529 107.211 116.648 107.383 116.648 107.586C116.648 107.669 116.602 107.799 116.508 107.977C116.419 108.154 116.315 108.312 116.195 108.453C116.081 108.589 115.984 108.656 115.906 108.656C115.87 108.656 115.789 108.62 115.664 108.547C115.466 108.453 115.279 108.38 115.102 108.328C114.924 108.271 114.708 108.242 114.453 108.242C113.906 108.242 113.508 108.417 113.258 108.766C113.008 109.109 112.883 109.641 112.883 110.359C112.883 111.083 113 111.62 113.234 111.969C113.474 112.312 113.854 112.484 114.375 112.484C114.661 112.484 114.911 112.456 115.125 112.398C115.339 112.336 115.542 112.258 115.734 112.164C115.771 112.148 115.815 112.13 115.867 112.109C115.919 112.089 115.958 112.078 115.984 112.078C116.078 112.078 116.18 112.146 116.289 112.281C116.404 112.411 116.5 112.562 116.578 112.734C116.661 112.906 116.703 113.039 116.703 113.133C116.703 113.372 116.547 113.565 116.234 113.711C115.922 113.857 115.573 113.961 115.188 114.023C114.802 114.086 114.495 114.117 114.266 114.117ZM118.68 114.023C118.122 114.023 117.844 113.878 117.844 113.586V103.977C117.844 103.826 117.911 103.714 118.047 103.641C118.182 103.562 118.393 103.523 118.68 103.523H119.062C119.62 103.523 119.898 103.674 119.898 103.977V109.469L119.945 109.484L121.633 106.977C121.706 106.867 121.807 106.797 121.938 106.766C122.068 106.729 122.247 106.711 122.477 106.711H122.992C123.513 106.711 123.773 106.781 123.773 106.922C123.773 106.995 123.729 107.083 123.641 107.188L121.719 109.945L123.977 113.523C124.055 113.654 124.094 113.75 124.094 113.812C124.094 113.953 123.828 114.023 123.297 114.023H122.719C122.495 114.023 122.312 114.005 122.172 113.969C122.031 113.932 121.935 113.862 121.883 113.758L119.945 110.562L119.898 110.586V113.586C119.898 113.878 119.62 114.023 119.062 114.023H118.68ZM129.156 105.539C128.865 105.539 128.651 105.503 128.516 105.43C128.385 105.357 128.32 105.245 128.32 105.094V103.977C128.32 103.826 128.388 103.714 128.523 103.641C128.659 103.562 128.87 103.523 129.156 103.523H129.539C129.826 103.523 130.036 103.562 130.172 103.641C130.307 103.714 130.375 103.826 130.375 103.977V105.094C130.375 105.245 130.307 105.357 130.172 105.43C130.042 105.503 129.831 105.539 129.539 105.539H129.156ZM129.156 114.023C128.599 114.023 128.32 113.878 128.32 113.586V107.148C128.32 107.003 128.388 106.893 128.523 106.82C128.659 106.747 128.87 106.711 129.156 106.711H129.539C129.826 106.711 130.036 106.747 130.172 106.82C130.307 106.893 130.375 107.003 130.375 107.148V113.586C130.375 113.878 130.096 114.023 129.539 114.023H129.156ZM134.289 114.117C133.628 114.117 133.122 113.932 132.773 113.562C132.43 113.188 132.258 112.62 132.258 111.859V108.359H132.039C131.893 108.359 131.786 108.305 131.719 108.195C131.656 108.086 131.625 107.909 131.625 107.664V107.43C131.625 107.185 131.656 107.008 131.719 106.898C131.786 106.789 131.893 106.734 132.039 106.734H132.258L132.438 105.414C132.479 105.122 132.729 104.977 133.188 104.977H133.625C133.865 104.977 134.039 105.013 134.148 105.086C134.263 105.159 134.32 105.268 134.32 105.414V106.734H135C135.146 106.734 135.25 106.789 135.312 106.898C135.38 107.008 135.414 107.185 135.414 107.43V107.664C135.414 107.909 135.38 108.086 135.312 108.195C135.25 108.305 135.146 108.359 135 108.359H134.32V111.883C134.32 112.096 134.357 112.25 134.43 112.344C134.508 112.438 134.635 112.484 134.812 112.484C134.865 112.484 134.935 112.477 135.023 112.461C135.112 112.44 135.167 112.43 135.188 112.43C135.271 112.43 135.344 112.5 135.406 112.641C135.474 112.776 135.526 112.927 135.562 113.094C135.604 113.26 135.625 113.372 135.625 113.43C135.625 113.888 135.18 114.117 134.289 114.117ZM143.258 114.117C142.159 114.117 141.32 113.794 140.742 113.148C140.169 112.503 139.883 111.573 139.883 110.359C139.883 109.151 140.169 108.227 140.742 107.586C141.32 106.945 142.159 106.625 143.258 106.625C144.357 106.625 145.19 106.945 145.758 107.586C146.331 108.221 146.617 109.146 146.617 110.359C146.617 111.573 146.331 112.503 145.758 113.148C145.19 113.794 144.357 114.117 143.258 114.117ZM143.258 112.484C143.695 112.484 144.016 112.307 144.219 111.953C144.427 111.599 144.531 111.068 144.531 110.359C144.531 109.656 144.427 109.128 144.219 108.773C144.016 108.419 143.695 108.242 143.258 108.242C142.393 108.242 141.961 108.948 141.961 110.359C141.961 111.062 142.065 111.594 142.273 111.953C142.487 112.307 142.815 112.484 143.258 112.484ZM150.07 114.117C149.372 114.117 148.857 113.935 148.523 113.57C148.19 113.201 148.023 112.63 148.023 111.859V107.148C148.023 107.003 148.091 106.893 148.227 106.82C148.362 106.747 148.573 106.711 148.859 106.711H149.242C149.529 106.711 149.74 106.747 149.875 106.82C150.01 106.893 150.078 107.003 150.078 107.148V111.547C150.078 111.833 150.143 112.049 150.273 112.195C150.404 112.341 150.617 112.414 150.914 112.414C151.169 112.414 151.391 112.333 151.578 112.172C151.771 112.005 151.919 111.818 152.023 111.609V107.148C152.023 107.003 152.091 106.893 152.227 106.82C152.362 106.747 152.573 106.711 152.859 106.711H153.242C153.529 106.711 153.74 106.747 153.875 106.82C154.01 106.893 154.078 107.003 154.078 107.148V111.547C154.078 111.984 154.089 112.328 154.109 112.578C154.135 112.823 154.167 113.052 154.203 113.266C154.229 113.406 154.242 113.505 154.242 113.562C154.242 113.667 154.146 113.753 153.953 113.82C153.76 113.888 153.539 113.938 153.289 113.969C153.044 114 152.846 114.016 152.695 114.016C152.529 114.016 152.409 113.951 152.336 113.82C152.268 113.685 152.214 113.495 152.172 113.25L152.133 113.055C151.914 113.352 151.62 113.604 151.25 113.812C150.885 114.016 150.492 114.117 150.07 114.117ZM158.039 114.117C157.378 114.117 156.872 113.932 156.523 113.562C156.18 113.188 156.008 112.62 156.008 111.859V108.359H155.789C155.643 108.359 155.536 108.305 155.469 108.195C155.406 108.086 155.375 107.909 155.375 107.664V107.43C155.375 107.185 155.406 107.008 155.469 106.898C155.536 106.789 155.643 106.734 155.789 106.734H156.008L156.188 105.414C156.229 105.122 156.479 104.977 156.938 104.977H157.375C157.615 104.977 157.789 105.013 157.898 105.086C158.013 105.159 158.07 105.268 158.07 105.414V106.734H158.75C158.896 106.734 159 106.789 159.062 106.898C159.13 107.008 159.164 107.185 159.164 107.43V107.664C159.164 107.909 159.13 108.086 159.062 108.195C159 108.305 158.896 108.359 158.75 108.359H158.07V111.883C158.07 112.096 158.107 112.25 158.18 112.344C158.258 112.438 158.385 112.484 158.562 112.484C158.615 112.484 158.685 112.477 158.773 112.461C158.862 112.44 158.917 112.43 158.938 112.43C159.021 112.43 159.094 112.5 159.156 112.641C159.224 112.776 159.276 112.927 159.312 113.094C159.354 113.26 159.375 113.372 159.375 113.43C159.375 113.888 158.93 114.117 158.039 114.117ZM161.719 110.922C161.448 110.922 161.26 110.885 161.156 110.812C161.057 110.74 161.008 110.625 161.008 110.469V104.695C161.008 104.544 161.076 104.432 161.211 104.359C161.346 104.281 161.557 104.242 161.844 104.242H162.438C162.708 104.242 162.914 104.279 163.055 104.352C163.201 104.419 163.273 104.516 163.273 104.641L163 106.945C162.953 107.352 162.893 107.849 162.82 108.438C162.753 109.021 162.672 109.698 162.578 110.469C162.557 110.63 162.5 110.747 162.406 110.82C162.318 110.888 162.141 110.922 161.875 110.922H161.719ZM161.57 114.023C161.008 114.023 160.727 113.878 160.727 113.586V112.305C160.727 112.008 161.008 111.859 161.57 111.859H162.008C162.565 111.859 162.844 112.008 162.844 112.305V113.586C162.844 113.878 162.565 114.023 162.008 114.023H161.57Z" fill="white"/>
</mask>
<g mask="url(#mask0_150_428)">
<rect width="250" height="357.143" fill="#4D314A"/>
<rect width="250" height="357.143" fill="url(#paint0_linear_150_428)"/>
</g>
<defs>
<linearGradient id="paint0_linear_150_428" x1="1.02557e-06" y1="180.891" x2="250" y2="180.891" gradientUnits="userSpaceOnUse">
<stop stop-color="#01BAF5"/>
<stop offset="1" stop-color="#0072FF"/>
</linearGradient>
</defs>
</svg>
